<svg xmlns:xlink="http://www.w3.org/1999/xlink" width="399.437" xmlns="http://www.w3.org/2000/svg" height="249.469" id="screenshot-8e0bab7b-180b-804f-8002-7b80c939cedc" viewBox="0 0 399.437 249.469" style="-webkit-print-color-adjust: exact;" fill="none" version="1.1"><g id="shape-8e0bab7b-180b-804f-8002-7b80c939cedc" height="249.46945mm" width="399.43701mm" rx="0" ry="0" style="fill: rgb(0, 0, 0);"><g id="shape-8e0bab7b-180b-804f-8002-7b80c93a7586"><g class="fills" id="fills-8e0bab7b-180b-804f-8002-7b80c93a7586"><path color="#000" overflow="visible" rx="0" ry="0" d="M300.536,3.077C274.102,3.034,247.333,3.837,220.446,4.941L223.781,237.699L395.408,248.411C387.314,176.599,389.237,90.686,388.806,7.275C360.022,4.259,330.494,3.125,300.536,3.077ZZM177.910,3.755L4.471,4.072L12.536,234.855L176.632,238.364Z" style="fill: rgb(255, 255, 255);"/></g></g><g id="shape-8e0bab7b-180b-804f-8002-7b80c943b5d1"><g class="fills" id="fills-8e0bab7b-180b-804f-8002-7b80c943b5d1"><path rx="0" ry="0" d="M229.117,240.775C225.580,240.654,221.990,240.268,221.140,239.917C219.453,239.219,218.731,237.409,219.275,235.240C219.750,225.956,220.631,210.488,220.819,201.402C220.497,182.760,222.022,169.092,220.611,150.488L211.580,150.441C196.969,150.366,186.208,149.392,182.016,147.764C180.582,147.208,180.480,147.276,180.155,149.009C179.966,150.017,179.772,164.794,179.725,181.847C179.660,205.302,179.824,214.214,180.400,218.445C180.819,221.521,181.248,225.536,181.352,227.367C180.939,233.690,182.632,244.594,175.305,241.331C173.051,240.322,171.601,240.269,150.814,240.432C131.660,240.581,117.765,240.275,92.643,239.148C89.413,239.003,79.346,238.750,70.271,238.586C36.280,237.973,13.741,236.990,11.122,236.005C9.949,211.757,8.089,189.192,7.338,166.149C7.171,160.765,6.795,153.340,6.503,149.649C5.432,136.134,4.931,123.540,4.543,100.428C4.052,75.384,1.478,49.172,1.442,26.463C1.425,11.088,1.273,7.517,0.567,5.826C-0.236,3.905,-0.220,3.713,0.832,2.662C1.920,1.573,2.810,1.538,33.174,1.371C87.519,1.071,135.542,0.579,149.135,0.181C174.228,-0.553,175.279,1.154,177.882,1.578C180.577,2.558,180.745,4.050,180.736,7.581L180.883,39.463C180.963,56.997,181.082,77.510,181.147,85.047C181.213,92.584,181.043,108.111,180.771,119.552L180.277,140.353C194.306,143.580,208.882,143.333,221.433,143.216L221.064,120.145C220.723,98.867,220.423,89.910,219.831,83.369C219.706,81.985,219.488,68.393,219.348,53.166C218.995,14.842,218.615,9.066,216.215,5.606C214.952,3.786,215.650,2.431,218.086,1.977C220.636,1.502,325.240,1.436,337.066,1.902C348.978,2.559,361.969,2.996,372.342,3.130C388.471,3.332,391.881,3.692,391.878,5.190C391.878,5.583,392.013,13.454,392.180,22.683C392.347,31.912,392.473,39.840,392.460,40.302C392.447,40.763,392.474,54.732,392.520,71.344C392.633,111.572,392.655,109.075,392.046,125.598C391.102,151.251,391.984,195.498,393.591,203.064C395.899,215.422,395.277,231.500,398.779,241.783C400.363,246.391,399.028,249.433,395.408,249.469C337.372,243.967,287.397,242.764,229.117,240.775ZZM387.155,201.386C385.615,186.797,385.134,140.678,386.322,121.403C386.615,116.635,386.811,105.434,386.756,96.513C386.701,87.592,386.718,69.093,386.793,55.403C386.883,39.238,386.705,28.651,386.287,25.200C385.933,22.278,385.655,17.714,385.669,15.059L385.694,10.232L383.913,9.875C382.933,9.679,379.354,9.385,375.959,9.221C341.710,5.260,307.312,5.594,278.617,5.943C265.389,6.109,247.645,6.327,239.185,6.429L223.804,6.615L223.944,10.174C224.022,12.132,224.077,25.941,224.068,40.861C224.059,55.781,224.318,72.267,224.644,77.496C225.663,94.625,226.272,113.051,226.303,129.161L226.321,142.792L230.376,142.460C236.649,141.945,248.363,139.233,253.066,137.207L255.126,136.319C252.116,135.594,248.878,135.296,246.177,135.096C239.761,134.634,239.320,134.496,238.459,132.690C236.874,129.359,239.333,125.489,242.147,126.888C250.102,128.725,257.630,129.866,265.193,128.428C271.091,127.278,272.725,127.349,274.528,128.834C277.780,132.418,276.524,135.904,274.337,138.015C267.546,144.687,265.020,151.116,256.737,156.808C254.440,158.388,250.069,158.389,249.102,157.422C248.395,156.715,249.976,154.110,254.027,149.310C257.873,144.751,258.107,144.335,256.826,144.335C247.709,148.447,236.243,149.974,226.433,150.207C226.340,150.290,226.337,157.623,226.426,166.503C226.625,186.426,226.577,203.748,226.273,221.072C226.119,229.879,226.238,234.523,226.628,234.914C227.270,235.559,240.494,236.209,272.744,237.182C283.973,237.521,303.982,238.278,317.210,238.864C361.756,241.702,366.347,244.357,389.642,243.668C389.568,224.175,386.832,216.861,387.155,201.386ZZM269.604,105.888C265.846,105.659,263.621,105.083,263.704,101.029C263.913,98.081,264.257,92.616,263.452,86.009C262.748,79.558,264.187,77.798,266.180,77.959C268.297,77.863,293.792,77.725,295.359,78.321C297.208,79.024,297.676,79.953,298.468,84.488C299.344,89.505,299.352,89.573,299.847,95.954L300.236,100.988C300.449,104.253,298.787,104.560,295.644,105.014C290.472,105.753,279.061,106.343,269.604,105.888ZZM293.801,101.115C294.698,101.135,295.088,100.716,295.338,99.466C296.051,95.900,294.131,82.744,292.775,81.906C291.916,81.375,280.563,81.722,273.024,82.508C271.495,82.671,269.969,82.743,268.435,82.810L268.637,91.317C268.749,95.996,269.068,100.052,269.346,100.330C270.203,101.187,278.269,101.715,285.609,101.393C289.454,101.225,293.141,101.099,293.801,101.115ZZM238.299,72.598C238.275,69.749,238.346,69.290,238.089,67.002C237.568,62.369,237.920,52.529,238.633,51.815C239.277,51.170,244.794,50.719,260.177,50.056C271.998,49.546,271.297,49.384,271.609,56.443C271.873,62.432,272.836,66.069,273.562,70.323C274.038,73.207,273.167,75.101,271.448,74.923C270.776,74.854,268.843,74.957,267.151,75.153C258.644,76.332,248.734,75.104,241.176,76.377C237.626,76.495,238.421,74.390,238.299,72.598ZZM268.206,71.858C268.811,71.657,268.892,70.898,268.577,68.396C268.354,66.633,267.984,62.854,267.753,59.997C267.522,57.139,267.077,54.546,266.763,54.232C265.674,53.143,257.249,53.340,245.096,54.741C242.013,55.096,241.745,55.243,241.312,56.802C241.056,57.724,240.986,60.493,241.156,62.954C241.693,70.727,241.961,72.095,242.990,72.314C244.295,72.593,267.244,72.177,268.206,71.858ZZM291.618,62.812C291.463,58.044,291.085,50.386,290.877,49.381C290.649,46.780,291.078,44.650,293.719,44.562L308.724,44.507C321.351,44.460,323.955,44.589,325.160,45.318C326.585,46.180,326.593,46.227,326.735,54.709C326.557,60.404,327.210,63.503,327.132,66.614C327.631,68.578,327.568,68.979,326.653,69.672C325.482,70.558,325.682,70.546,309.660,70.739C303.353,70.815,297.337,70.908,296.261,71.091C291.114,71.267,292.603,72.006,291.618,62.812ZZM322.786,66.410C322.714,59.957,322.687,54.340,322.034,48.623C321.924,47.630,296.819,48.314,296.177,49.326C295.632,50.187,295.574,64.125,296.016,66.264C296.009,68.152,310.776,67.605,319.500,67.628C322.152,67.628,322.555,67.479,322.786,66.410ZZM331.620,31.583C330.054,31.382,329.099,30.707,327.813,29.450C325.021,25.198,326.420,20.678,326.439,16.680C326.439,12.609,326.432,12.612,335.910,12.413C341.838,12.289,343.126,12.406,343.391,13.097C343.995,14.670,342.682,15.183,334.676,16.504C332.554,16.855,332.032,17.253,332.032,18.521C332.032,19.461,332.436,19.607,335.040,19.607C338.780,19.607,339.862,20.569,338.038,22.270C337.350,22.912,335.924,23.534,334.870,23.651C332.701,23.894,331.392,25.342,332.415,26.366C332.766,26.716,334.396,27.045,336.038,27.096C337.680,27.148,339.338,27.386,339.723,27.626C340.707,28.241,340.592,29.956,339.506,30.857C338.531,31.667,334.350,31.933,331.620,31.583ZZM270.873,29.770C269.684,28.456,269.701,27.462,270.927,26.565C271.769,25.948,271.905,24.866,271.905,18.792C271.905,10.800,272.095,10.422,275.821,10.981C281.190,12.829,285.732,14.527,284.499,22.083C283.850,24.962,281.817,27.193,278.108,29.097C274.326,31.038,272.200,31.236,270.873,29.770ZZM277.919,16.919C276.956,16.774,276.746,17.115,276.542,19.156C276.410,20.481,276.415,22.017,276.553,22.570C278.217,25.590,281.559,17.620,277.919,16.919ZZM319.332,27.638C318.570,26.848,313.823,20.283,313.369,20.558C313.175,20.753,313.015,22.145,313.015,23.652C313.015,26.856,312.263,28.556,310.845,28.556C308.559,28.556,308.119,27.014,308.248,19.460C308.829,15.437,306.659,12.252,310.647,11.439C312.081,11.152,312.645,11.363,313.812,12.622C315.530,14.426,316.260,18.462,318.469,19.469C319.473,19.801,319.368,16.306,318.296,13.742C317.494,11.822,317.501,11.573,318.383,10.598C321.362,7.306,323.428,12.204,323.749,23.321C323.939,29.897,322.296,31.502,319.332,27.638ZZM292.600,28.376C290.838,27.792,289.481,26.304,288.895,24.314C288.277,22.214,289.369,17.693,291.208,14.735C294.101,10.189,297.867,10.732,300.710,13.728C301.945,15.048,302.106,15.704,302.086,19.330C302.074,21.589,301.744,24.022,301.353,24.738C299.755,27.661,295.624,29.378,292.600,28.376ZZM296.435,22.264C297.295,20.884,297.651,15.692,296.886,15.692C295.953,15.692,294.652,17.686,294.007,20.106C293.480,22.087,293.497,22.655,294.095,23.034C295.224,23.750,295.582,23.632,296.435,22.264ZZM175.135,233.254C174.451,232.147,173.870,172.923,174.532,171.814C175.112,162.739,175.229,155.812,175.531,146.084C167.841,144.046,158.070,139.968,153.189,135.246C151.644,133.591,151.050,131.134,151.937,130.065C152.835,128.984,156.070,128.993,156.972,130.080C162.313,133.438,169.797,137.736,175.088,138.703C175.475,138.317,175.620,133.051,175.488,124.200C175.426,120.047,175.652,110.860,175.991,103.785C176.330,96.709,176.462,89.284,176.285,87.285C175.709,80.766,175.405,64.547,175.380,38.903C175.359,16.893,175.235,13.278,174.391,10.103L173.425,6.471L170.649,5.982C167.487,5.425,124.292,5.372,62.440,5.849C19.435,6.180,9.381,6.442,8.571,7.253C8.320,7.503,8.014,9.316,7.891,11.281C7.671,14.793,6.930,32.554,6.843,36.386C6.765,39.866,7.634,57.749,8.175,63.793C8.873,71.596,9.282,82.567,9.583,101.547C9.938,123.933,10.410,139.560,10.995,148.250C11.274,152.403,11.525,158.444,11.553,161.674C11.849,174.949,13.106,189.400,14.015,201.386C15.831,225.355,16.042,227.580,16.671,229.420C17.027,230.459,17.560,231.469,17.855,231.664C33.273,233.517,52.277,233.889,68.033,234.136C84.875,236.526,176.413,236.454,175.135,233.254ZZM64.398,177.916C58.907,178.153,59.023,175.684,58.801,174.699C58.670,174.118,58.270,170.302,58.133,166.149C57.995,161.996,57.668,157.843,57.404,156.920C56.212,152.746,56.192,150.729,57.328,149.331C58.693,147.664,69.705,148.066,74.839,148.109C85.358,148.807,90.432,147.563,92.426,149.588C93.435,150.733,93.670,151.975,94.044,158.119C94.285,162.074,94.509,167.656,94.541,170.523C94.625,177.870,94.811,177.787,77.989,177.873C74.322,178.139,72.957,178.238,64.398,177.916ZZM88.169,173.532C90.491,173.013,90.641,172.348,89.839,166.149C89.541,163.841,89.180,160.444,89.038,158.598C88.685,154.007,88.237,152.755,86.843,152.465C78.482,152.377,70.108,152.298,61.756,152.725L62.071,161.814C62.422,171.915,62.524,172.780,63.428,173.339C64.321,173.891,85.811,174.059,88.169,173.532ZZM47.448,141.169C45.642,140.783,45.186,139.176,44.239,129.855C43.384,121.433,42.513,116.540,41.682,115.485C41.395,115.121,41.656,114.398,42.336,113.667C43.420,112.504,43.923,112.452,54.492,112.419C60.555,112.399,68.002,112.259,71.040,112.108C76.144,111.853,76.663,111.925,77.857,113.047C79.035,114.154,79.159,114.789,79.254,120.209C79.311,123.481,79.443,127.919,79.548,130.072C79.652,132.226,79.746,134.600,79.756,135.348C79.778,136.930,78.526,139.037,77.122,139.781C75.815,140.474,49.873,141.688,47.448,141.169ZZM73.795,135.837C74.689,135.375,74.788,134.586,74.675,128.779C74.605,125.184,74.442,120.923,74.313,119.312L74.079,116.381L61.144,116.683C51.998,116.896,48.078,117.181,47.762,117.656C47.516,118.025,47.439,119.082,47.590,120.005C48.201,125.739,48.367,131.171,49.093,137.118L60.940,136.738C67.456,136.529,73.241,136.124,73.795,135.837ZZM113.061,99.869C112.918,94.800,112.379,89.737,111.635,86.446C110.838,82.928,110.096,81.921,111.238,80.329C112.544,78.508,123.105,77.637,129.922,77.627C139.661,77.612,145.065,77.823,146.419,78.270C148.658,78.430,148.461,80.346,148.529,83.785C148.581,86.452,149.117,90.845,149.718,93.547C151.455,101.345,151.209,102.532,147.719,103.194C143.882,103.922,141.620,104.075,131.516,104.292C125.671,104.418,120.180,104.795,119.314,105.131C112.471,107.134,113.167,103.620,113.061,99.869ZZM143.466,99.802L145.349,99.515L145.002,95.497C144.649,91.401,144.553,90.619,143.845,86.119C143.162,81.769,143.783,81.971,131.059,81.971C117.040,81.971,116.689,82.086,116.704,86.680C116.716,90.542,117.623,99.390,118.083,100.134C118.421,100.680,139.523,100.404,143.466,99.802ZZM56.176,103.891C54.352,102.200,54.023,100.775,55.272,99.969C55.961,99.525,56.563,99.546,57.510,100.047C58.397,100.517,60.564,100.645,64.398,100.453C67.474,100.299,73.341,100.163,77.435,100.150L84.878,100.127L84.525,97.761C84.331,96.459,84.002,92.652,83.793,89.300C83.261,80.729,83.770,81.021,69.189,80.926C59.841,80.865,57.834,80.709,57.394,80.013C56.632,78.808,56.725,77.718,57.680,76.663C58.360,75.912,59.121,75.814,61.802,76.130C65.228,76.534,77.567,76.340,82.134,75.811C86.191,75.341,87.374,75.860,88.705,78.691C89.660,80.723,89.778,81.564,89.346,83.254C88.265,87.475,88.197,90.409,89.050,96.150C89.754,100.894,89.789,102.287,89.231,103.330C85.669,103.886,80.100,103.889,75.723,104.006C71.146,104.112,66.716,104.392,61.311,104.916C57.956,105.242,57.545,105.160,56.176,103.891ZZM57.747,98.368C57.605,97.656,56.813,94.304,55.987,90.920C53.520,80.812,53.563,80.048,56.556,80.799C58.107,81.189,58.590,82.512,59.942,90.081C60.617,93.861,60.741,95.960,60.372,97.351C59.757,99.669,58.132,100.298,57.747,98.368ZZM29.220,71.689C28.121,70.475,28.511,67.708,29.780,67.708C30.816,67.708,30.769,67.035,29.386,62.104C28.055,57.357,26.622,49.182,27.011,48.552C29.709,46.553,30.787,54.451,30.808,54.564C31.573,58.679,34.247,67.711,34.754,67.894C35.061,68.005,40.269,67.976,46.327,67.830C55.810,67.602,57.391,67.439,57.694,66.658C58.134,65.527,58.084,55.208,57.627,52.771C57.441,51.780,56.977,50.709,56.595,50.392C55.413,49.411,44.595,48.568,37.734,48.922L31.206,49.259C30.273,49.204,27.927,48.432,29.050,45.668C29.456,44.450,34.455,44.259,46.509,45.002C59.352,45.793,61.157,46.202,61.574,48.412C61.961,50.462,62.999,62.485,62.999,64.912C63.368,68.360,63.105,71.396,60.681,71.334C56.528,71.401,40.515,71.896,38.669,72.193C33.311,73.056,30.313,72.897,29.220,71.689ZZM81.385,66.923C80.251,66.344,80.079,65.885,80.196,63.761C80.363,60.733,79.447,51.733,78.560,47.684C77.963,44.960,78.003,44.625,79.055,43.574C80.139,42.489,80.844,42.430,92.434,42.441C105.191,42.521,110.260,40.162,113.893,42.982C114.986,43.867,115.227,44.939,115.942,52.071C117.143,64.073,117.925,66.086,111.952,67.372C106.758,68.490,83.308,67.904,81.385,66.923ZZM111.973,62.846C111.326,61.174,111.089,59.276,110.904,54.285C110.807,51.670,110.389,48.602,109.975,47.467C109.309,45.639,109.094,45.472,108.094,46.007C107.419,46.369,102.683,46.649,96.309,46.705C90.447,46.756,85.199,47.004,84.644,47.256C83.739,47.668,83.675,48.229,84.018,52.817C84.537,54.658,83.662,61.157,85.372,62.374C86.218,62.916,93.486,63.386,105.719,63.690C111.932,63.845,112.338,63.790,111.973,62.846ZZM72.352,29.039C70.475,27.639,69.152,25.228,69.152,23.206C69.152,18.583,76.134,13.191,80.258,14.629C82.281,15.334,83.667,17.786,84.008,21.261C84.381,25.073,83.382,26.797,79.694,28.704C76.158,30.533,74.459,30.611,72.352,29.039ZZM78.101,23.522C79.288,22.335,79.584,20.457,78.672,19.894C77.735,19.314,74.745,21.944,74.745,23.348C74.745,24.999,76.531,25.092,78.101,23.522ZZM59.650,28.135C59.079,27.493,58.796,25.832,58.751,22.858C58.669,17.375,58.105,16.577,54.634,17.025C51.640,17.412,49.296,16.453,49.296,14.842C49.296,13.376,51.068,13.043,59.299,12.961C62.955,12.925,66.952,12.594,68.181,12.225C70.741,11.457,72.447,12.888,72.508,15.434C72.508,16.579,72.166,16.771,69.571,17.087C67.956,17.284,65.685,17.336,64.524,17.203C63.363,17.070,62.306,17.134,62.176,17.344C61.878,17.826,63.323,26.270,63.782,26.728C63.597,28.762,61.172,29.796,59.650,28.135ZZM101.164,27.189C98.798,26.122,98.352,24.902,99.872,23.661C101.382,22.427,101.879,16.802,100.685,14.461C98.613,10.398,100.784,8.778,106.131,10.397C110.744,11.794,113.977,14.228,114.571,17.489C114.954,19.592,115.141,21.412,113.645,23.227C110.106,27.521,104.910,28.879,101.164,27.189ZZM109.974,18.870C109.953,17.258,107.347,15.460,106.127,16.214C105.335,16.703,105.412,20.016,106.241,21.138C106.634,21.671,107.126,21.565,108.367,20.681C109.255,20.048,109.978,19.233,109.974,18.870ZZM120.850,26.898C118.057,25.767,116.378,19.725,117.858,16.130C119.129,13.042,120.440,12.298,123.965,12.664C128.742,13.159,130.598,13.917,131.551,15.759C133.463,19.456,131.082,25.843,127.414,26.862C124.990,27.535,122.458,27.549,120.850,26.898ZZM126.482,20.525C127.734,18.613,127.024,17.270,124.873,17.479C123.534,17.610,123.083,17.952,122.942,18.948C122.519,21.939,124.870,22.985,126.482,20.525ZZ" style="fill: rgb(3, 3, 3);"/></g></g></g></svg>