<svg id="c" width="1533" height="311" fill="none" style="-webkit-print-color-adjust:exact" version="1.1" viewBox="0 0 1533 311" xmlns="http://www.w3.org/2000/svg">
 <g id="d" rx="0" ry="0">
  <g id="e" rx="0" ry="0">
   <g id="f">
    <g id="g" class="fills">
     <rect width="1532" height="149.5" rx="0" ry="0"/>
    </g>
   </g>
   <g id="h">
    <defs>
     <linearGradient id="a" x1=".49648" x2=".5" y1="-3.4695" y2="1">
      <stop stop-color="#cdbdb8" offset="0"/>
      <stop stop-color="#cdbdb8" stop-opacity="0" offset="1"/>
     </linearGradient>
     <pattern id="b" x="31.118749999999636" y="169.38858181267642" width="1500.8812499999995" height="140.60359405365853" data-loading="false" patternUnits="userSpaceOnUse">
      <rect width="1500.9" height="140.6" fill="url(#a)"/>
     </pattern>
    </defs>
    <g id="i" class="fills">
     <path rx="0" ry="0" d="m31.119 293.64c65.828-68.667 65.828-67.577 65.828-67.577l16.756 21.799 55.056-61.037 64.632 82.836 25.134-29.429 40.694 50.138 80.19-114.44 27.528 37.059 20.347-17.44 55.057 52.318 20.346-25.069 56.254 57.768 120.88-104.64 107.72 91.556 44.284-40.328 15.559 14.169 47.875-65.397 68.222 106.82 23.938-67.577s28.725 53.408 33.512 46.868c4.788-6.539 78.994-89.376 78.994-89.376l88.569 105.73 20.347-63.218s18.086 34.452 27.702 40.105c1.996 1.173 3.626 1.106 4.655-0.768 5.984-10.899 49.03-85.114 49.03-85.114l88.569 112.26 41.891-65.397 55.056 63.218 46.678-78.477 8.378 34.879 1.197 74.116" fill="url(#b)"/>
    </g>
    <g id="j" class="strokes">
     <g class="stroke-shape">
      <path rx="0" ry="0" d="m31.119 293.64c65.828-68.667 65.828-67.577 65.828-67.577l16.756 21.799 55.056-61.037 64.632 82.836 25.134-29.429 40.694 50.138 80.19-114.44 27.528 37.059 20.347-17.44 55.057 52.318 20.346-25.069 56.254 57.768 120.88-104.64 107.72 91.556 44.284-40.328 15.559 14.169 47.875-65.397 68.222 106.82 23.938-67.577s28.725 53.408 33.512 46.868c4.788-6.539 78.994-89.376 78.994-89.376l88.569 105.73 20.347-63.218s18.086 34.452 27.702 40.105c1.996 1.173 3.626 1.106 4.655-0.768 5.984-10.899 49.03-85.114 49.03-85.114l88.569 112.26 41.891-65.397 55.056 63.218 46.678-78.477 8.378 34.879 1.197 74.116" fill="none" stroke="#000" stroke-width="2"/>
     </g>
    </g>
   </g>
   <g id="k">
    <g id="l" class="fills">
     <path rx="0" ry="0" d="m11.969 310 20.347-14.291 19.15-19.787 45.481-47.27 25.134 32.979 10.313 13.282-9.848-0.609-14.827 6.015-7.093-2.19-8.589-2.652-17.668 5.152-15.724 6.198-8.376 7.783-11.969 9.894-26.331 5.496zm110.11-48.369 20.347 23.085 12.221-9.401 13.77-1.822 9.792 3.429 9.698 3.397 8.244-22.654 4.159-5.035-2.312-7.3 28.257 25.27 5.878 0.398-0.286-2.176-63.09-79.744s-53.602 59.943-53.859 60.461" fill="#fff"/>
    </g>
    <g id="m" class="strokes">
     <g class="stroke-shape">
      <path rx="0" ry="0" d="m11.969 310 20.347-14.291 19.15-19.787 45.481-47.27 25.134 32.979 10.313 13.282-9.848-0.609-14.827 6.015-7.093-2.19-8.589-2.652-17.668 5.152-15.724 6.198-8.376 7.783-11.969 9.894-26.331 5.496zm110.11-48.369 20.347 23.085 12.221-9.401 13.77-1.822 9.792 3.429 9.698 3.397 8.244-22.654 4.159-5.035-2.312-7.3 28.257 25.27 5.878 0.398-0.286-2.176-63.09-79.744s-53.602 59.943-53.859 60.461" fill="none" stroke="#000" stroke-width="2"/>
     </g>
    </g>
   </g>
   <g id="n">
    <g id="o" class="fills">
     <path rx="0" ry="0" d="m243.51 261.63 14.363-18.688 22.74 27.483-10.662 0.459-5.145-2.745-6.478-1.133-3.444-4.227-20.293 7.204 6.589-6.566 2.33-1.787z" fill="#fff"/>
    </g>
    <g id="p" class="strokes">
     <g class="stroke-shape">
      <path rx="0" ry="0" d="m243.51 261.63 14.363-18.688 22.74 27.483-10.662 0.459-5.145-2.745-6.478-1.133-3.444-4.227-20.293 7.204 6.589-6.566 2.33-1.787z" fill="none" stroke="#000" stroke-width="2"/>
     </g>
    </g>
   </g>
   <g id="q">
    <g id="r" class="fills">
     <path rx="0" ry="0" d="m140.03 282.52 11.388 13.516"/>
    </g>
    <g id="s" class="strokes">
     <g class="stroke-shape">
      <path rx="0" ry="0" d="m140.03 282.52 11.388 13.516" fill="none" stroke="#000" stroke-width="2"/>
     </g>
    </g>
   </g>
   <g class="fills">
    <path rx="0" ry="0" d="m300.42 290.04c0-1.099 78.966-111.96 78.966-111.96l27.528 37.376 20.347-17.589 55.056 52.766 20.347-25.283 34.71 35.177-22.741 3.298-14.363-6.596-33.512 14.291-20.347-15.39s-11.306-0.209-26.18 0.511c-7.01 0.34-14.812 0.885-22.597 1.756-0.812 0.091-9.423-2.991-10.235-2.89-19.966 2.464-31.71 10.773-31.71 10.773l-9.077-27.56s-5.472 11.427-13.137 19.352-33.055 31.965-33.055 31.965z" fill="#fff"/>
   </g>
   <g class="strokes">
    <g class="stroke-shape">
     <path rx="0" ry="0" d="m300.42 290.04c0-1.099 78.966-111.96 78.966-111.96l27.528 37.376 20.347-17.589 55.056 52.766 20.347-25.283 34.71 35.177-22.741 3.298-14.363-6.596-33.512 14.291-20.347-15.39s-11.306-0.209-26.18 0.511c-7.01 0.34-14.812 0.885-22.597 1.756-0.812 0.091-9.423-2.991-10.235-2.89-19.966 2.464-31.71 10.773-31.71 10.773l-9.077-27.56s-5.472 11.427-13.137 19.352-33.055 31.965-33.055 31.965z" fill="none" stroke="#000" stroke-width="2"/>
    </g>
   </g>
   <g class="fills">
    <path rx="0" ry="0" d="m631.35 219.86 47.875-41.773 55.056 47.27-26.93 17.039-12.212-0.843-33.269 4.14-8.977-7.695-24.846 17.795-4.856-17.904-15.061 0.899 23.22-18.928z" fill="#fff"/>
   </g>
   <g class="strokes">
    <g class="stroke-shape">
     <path rx="0" ry="0" d="m631.35 219.86 47.875-41.773 55.056 47.27-26.93 17.039-12.212-0.843-33.269 4.14-8.977-7.695-24.846 17.795-4.856-17.904-15.061 0.899 23.22-18.928z" fill="none" stroke="#000" stroke-width="2"/>
    </g>
   </g>
   <g class="fills">
    <path rx="0" ry="0" d="m805.43 253.36 49.142-0.522 38.3 5.496 31.118-17.588 22.833 16.891-51.558-79.551-47.875 65.958-15.436-15.175-8.463 7.931-9.336 8.067-8.866 7.814" fill="#fff"/>
   </g>
   <g class="strokes">
    <g class="stroke-shape">
     <path rx="0" ry="0" d="m805.43 253.36 49.142-0.522 38.3 5.496 31.118-17.588 22.833 16.891-51.558-79.551-47.875 65.958-15.436-15.175-8.463 7.931-9.336 8.067-8.866 7.814" fill="none" stroke="#000" stroke-width="2"/>
    </g>
   </g>
   <g class="fills">
    <path rx="0" ry="0" d="m975.45 251.75 11.924 10.983 7.181-14.29s5.985-1.1 7.182 0c1.196 1.099 5.917 3.363 5.917 3.363l-20.28-34.143-11.924 34.087z" fill="#fff"/>
   </g>
   <g class="strokes">
    <g class="stroke-shape">
     <path rx="0" ry="0" d="m975.45 251.75 11.924 10.983 7.181-14.29s5.985-1.1 7.182 0c1.196 1.099 5.917 3.363 5.917 3.363l-20.28-34.143-11.924 34.087z" fill="none" stroke="#000" stroke-width="2"/>
    </g>
   </g>
   <g class="fills">
    <path rx="0" ry="0" d="m1147.2 229.52c-1.796-1.1-22.11-8.573-22.11-8.573l-12.567 21.436s-13.764-1.648-16.756-1.099c-2.992 0.55-28.127 7.695-28.127 7.695l-10.771-15.39-21.544 12.642 64.386-72.545 47.489 55.834z" fill="#fff"/>
   </g>
   <g class="strokes">
    <g class="stroke-shape">
     <path rx="0" ry="0" d="m1147.2 229.52c-1.796-1.1-22.11-8.573-22.11-8.573l-12.567 21.436s-13.764-1.648-16.756-1.099c-2.992 0.55-28.127 7.695-28.127 7.695l-10.771-15.39-21.544 12.642 64.386-72.545 47.489 55.834z" fill="none" stroke="#000" stroke-width="2"/>
    </g>
   </g>
   <g class="fills">
    <path rx="0" ry="0" d="m1201.7 241.68c6.381-0.323 10.464-3.129 10.464-3.129l1.197-4.397 4.787 3.298 5.624 4.74-14.571-24.537-7.501 24.025z" fill="#fff"/>
   </g>
   <g class="strokes">
    <g class="stroke-shape">
     <path rx="0" ry="0" d="m1201.7 241.68c6.381-0.323 10.464-3.129 10.464-3.129l1.197-4.397 4.787 3.298 5.624 4.74-14.571-24.537-7.501 24.025z" fill="none" stroke="#000" stroke-width="2"/>
    </g>
   </g>
   <g class="fills">
    <path rx="0" ry="0" d="m1258.1 225.82 32.128-54.328s39.497 49.468 38.3 48.369-16.756 8.794-16.756 8.794l-25.134-1.099-7.182-3.298-11.968-7.695-4.705 7.164-4.683 2.093z" fill="#fff"/>
   </g>
   <g class="strokes">
    <g class="stroke-shape">
     <path rx="0" ry="0" d="m1258.1 225.82 32.128-54.328s39.497 49.468 38.3 48.369-16.756 8.794-16.756 8.794l-25.134-1.099-7.182-3.298-11.968-7.695-4.705 7.164-4.683 2.093z" fill="none" stroke="#000" stroke-width="2"/>
    </g>
   </g>
   <g class="fills">
    <path rx="0" ry="0" d="m1398.6 254.04 22.959-35.283 14.636 17.61 19.881 22.592-30.722 3.22-6.325-8.685-12.648 2.482-27.483 26.701 19.702-28.637z" fill="#fff"/>
   </g>
   <g class="strokes">
    <g class="stroke-shape">
     <path rx="0" ry="0" d="m1398.6 254.04 22.959-35.283 14.636 17.61 19.881 22.592-30.722 3.22-6.325-8.685-12.648 2.482-27.483 26.701 19.702-28.637z" fill="none" stroke="#000" stroke-width="2"/>
    </g>
   </g>
   <g class="fills">
    <path rx="0" ry="0" d="m1498.7 243.66 23.441-39.188 7.825 31.565-0.297 34.116-6.659 8.562-14.125-35.412-10.366 0.244" fill="#fff"/>
   </g>
   <g class="strokes">
    <g class="stroke-shape">
     <path rx="0" ry="0" d="m1498.7 243.66 23.441-39.188 7.825 31.565-0.297 34.116-6.659 8.562-14.125-35.412-10.366 0.244" fill="none" stroke="#000" stroke-width="2"/>
    </g>
   </g>
   <g class="fills">
    <path rx="0" ry="0" d="m1381.2 278.71-13.217 19.656"/>
   </g>
   <g class="strokes">
    <g class="stroke-shape">
     <path rx="0" ry="0" d="m1381.2 278.71-13.217 19.656" fill="none" stroke="#000" stroke-width="2"/>
    </g>
   </g>
   <g id="t">
    <g id="u" class="fills">
     <path rx="0" ry="0" d="m1239.4 255.83 0.21 19.76-2.847 12.037"/>
    </g>
    <g id="v" class="strokes">
     <g class="stroke-shape">
      <path rx="0" ry="0" d="m1239.4 255.83 0.21 19.76-2.847 12.037" fill="none" stroke="#000" stroke-width="2"/>
     </g>
    </g>
   </g>
   <g id="w">
    <g id="x" class="fills">
     <path rx="0" ry="0" d="m568.52 273.46-22.143 19.375m232.79-32.66 16.025 14.049 7.827 6.862"/>
    </g>
    <g id="y" class="strokes">
     <g class="stroke-shape">
      <path rx="0" ry="0" d="m568.52 273.46-22.143 19.375m232.79-32.66 16.025 14.049 7.827 6.862" fill="none" stroke="#000" stroke-width="2"/>
     </g>
    </g>
   </g>
   <g id="z">
    <g id="aa" class="fills">
     <path rx="0" ry="0" d="m406.34 216.44c1.272 1.153 20.347 27.678 20.347 27.678"/>
    </g>
    <g id="ab" class="strokes">
     <g class="stroke-shape">
      <path rx="0" ry="0" d="m406.34 216.44c1.272 1.153 20.347 27.678 20.347 27.678" fill="none" stroke="#000" stroke-width="2"/>
     </g>
    </g>
   </g>
   <g id="ac">
    <g id="ad" class="fills">
     <path rx="0" ry="0" d="m1021 261.83c-2.394 2.214-14.402 17.071-14.402 17.071"/>
    </g>
    <g id="ae" class="strokes">
     <g class="stroke-shape">
      <path rx="0" ry="0" d="m1021 261.83c-2.394 2.214-14.402 17.071-14.402 17.071" fill="none" stroke="#000" stroke-width="2"/>
     </g>
    </g>
   </g>
  </g>
  <g fill="#000">
   <g id="af" width="157.60742mm" height="107.01275mm" rx="0" ry="0">
    <g class="fills">
     <path rx="0" ry="0" d="m584.65 174.94c-12.274-2.124-20.851 11.645-20.851 11.645-18.224-1.338-25.71 4.926-17.526 9.077s18.078 6.671 18.078 6.671c2.849 7.58 26.479 10.193 26.616 7.579 0 0 1.324 1.638 14.684 1.654 15.225 0.018 10.78-10.627-7.683-15.271 0 0 2.259-17.443-12.119-21.099-0.403-0.102-0.803-0.187-1.199-0.256zm-12.681 40.274c-0.936-0.174-1.853 0.531-2.047 1.575-0.194 1.045 0.407 2.032 1.344 2.206 0.449 0.084 0.918-0.035 1.301-0.331 0.384-0.295 0.652-0.743 0.746-1.244 0.093-0.501 4e-3 -1.016-0.248-1.429-0.252-0.414-0.647-0.693-1.096-0.777zm-22.323-2.472c-1.739-0.323-3.39 0.713-3.688 2.315s0.871 3.163 2.61 3.486c0.835 0.156 1.693-1e-3 2.385-0.435s1.161-1.11 1.304-1.88c0.143-0.769-0.051-1.569-0.541-2.222-0.489-0.654-1.234-1.109-2.07-1.264zc1e-3 0 0 0 0 0zm50.99 10.606c-1.102-0.196-2.152 0.511-2.351 1.582-0.2 1.078 0.535 2.119 1.642 2.325s2.167-0.501 2.368-1.579c0.096-0.518-0.023-1.053-0.331-1.489-0.307-0.436-0.779-0.737-1.328-0.839zc0.011 2e-3 6e-3 1e-3 0 0z" fill="#fff" overflow="visible"/>
    </g>
    <g class="fills">
     <path rx="0" ry="0" d="m584.43 174.09c-3.668-0.726-7.579-0.252-11.088 1.966-3.294 2.083-7.634 6.362-9.4 9.785-2.722-0.412-7.093-0.217-8.9-0.169-3.453 0.119-8.981 0.958-11.19 2.245-1.027 0.598-1.419 1.113-1.802 2.366-0.365 1.191-0.366 1.978-5e-3 2.98 0.465 1.181 1.561 1.827 2.598 2.408 3.15 1.957 6.536 3.302 10.096 4.718 1.144 0.401 1.27 0.498 0.941 0.72-0.33 0.224-1.322 2.005-1.667 2.994-0.191 0.548-0.883 1.987-1.538 3.197s-1.38 2.586-1.612 3.058c-0.232 0.473-0.457 0.93-0.5 1.017-0.043 0.086-0.414 0.141-0.823 0.121-0.806-0.04-1.89 0.282-2.524 0.748-1.038 0.765-1.948 4.203-1.273 4.81 0.08 0.071 0.124 0.244 0.098 0.385-0.042 0.232 0.165 0.477 1.161 1.367 0.343 0.307 1.009 0.449 1.982 0.422 0.572-0.016 1.484-0.234 1.654-0.395 0.053-0.05 0.222-0.132 0.376-0.182 0.631-0.204 1.403-1.06 1.724-1.913 0.426-1.132 0.337-2.97-0.174-3.604-0.301-0.372-0.309-0.462-0.085-0.875 0.138-0.253 0.762-1.455 1.387-2.67 0.895-1.74 2.031-3.949 2.886-6.008l0.673-1.343c0.129-0.71-0.603-1.005 0.81-0.653 1.504 0.332 3.093 1.142 4.801 1.402 0.763 0.169 0.811 0.207 0.927 0.737 0.133 0.605 1.195 2.014 2.068 2.743 0.989 0.825 1.562 1.048 3.817 1.488 1.195 0.233 2.178 0.42 2.183 0.415s0.098-0.283 0.207-0.618c0.184-0.571 0.168-0.631-0.249-0.943-0.244-0.183-0.996-0.475-1.669-0.65-1.874-0.485-2.786-0.792-3.628-1.221-0.6-0.306-1.257-0.932-1.094-1.042 0.055-0.038 0.84 0.138 1.743 0.39 1.866 0.521 3.072 0.843 4.807 1.285 0.664 0.169 1.773 0.516 2.464 0.771 2.037 0.752 5.296 1.688 7.655 2.199 3.942 0.854 6.516 1.489 6.495 1.603-0.676 0.897-7.902-0.917-12.485-1.279-0.42-0.104-0.456-0.078-0.484 0.35-0.048 0.732 0.12 1.044 0.816 1.516 0.527 0.357 0.942 0.492 2.187 0.707 1.924 0.334 5.405 0.789 7.611 0.995 1.226 0.115 4.368 0.059 5.027-0.088 0.693-0.155 1.284-0.532 1.345-0.858 0.034-0.18 0.17-0.258 0.398-0.226 0.404 0.057 2.328 0.417 3.332 0.622l0.696 0.142 0.164 1.4c0.283 2.47 0.485 5.355 0.589 8.034 0.203 0.89 0.187 1.018-0.148 1.222-0.223 0.135-0.424 0.507-0.61 1.127-0.246 0.817-0.249 1.036-0.027 1.86 0.303 1.13 0.582 1.416 1.81 1.859 1.839 0.664 2.975 0.646 3.788-0.059 0.828-0.719 0.54-2.279-0.75-4.054-0.709-0.976-0.9-1.148-1.316-1.182l-0.487-0.04-0.131-1.977c-0.143-2.161-0.41-4.396-0.625-5.233-0.19-0.739-0.323-1.983-0.253-2.371 0.052-0.285 0.169-0.312 1.029-0.23 3.727 0.323 8.802 0.06 12.562-1.432 1.576-0.858 3.992-3.032 3.254-4.84-1.771-3.949-7.561-6.821-12.065-8.588-0.404-0.164-1.434-0.531-2.289-0.816-1.404-0.469-1.608-0.505-2.112-0.374-0.591 0.154-0.781 0.626-0.368 0.917 0.241 0.17 0.723 0.537 1.073 0.817 0.344 0.275 3.1 1.592 4.318 2.064 2.959 1.182 10.111 5.526 9.323 7.231-0.483 1.323-3.104 1.888-3.593 1.797-0.024-4e-3 0.055-0.324 0.176-0.711 0.208-0.664 0.194-0.743-0.258-1.416-0.262-0.391-0.58-0.926-0.706-1.187-0.197-0.41-0.301-0.474-0.755-0.469-0.289 3e-3 -0.802 0.182-1.14 0.396-0.563 0.358-0.626 0.463-0.778 1.28-0.138 0.742-0.114 0.969 0.144 1.373 0.171 0.266 0.472 0.557 0.67 0.648 0.198 0.09 0.343 0.253 0.323 0.362-0.033 0.18-0.904 0.384-1.487 0.349-0.129-8e-3 -0.346 9e-3 -0.481 0.038-0.245 0.051-3.297 0.109-3.541 0.066-0.07-0.012 0.126-0.194 0.436-0.404 0.463-0.313 0.579-0.492 0.656-1.01 0.145-0.981 0.09-1.159-0.484-1.577-0.514-0.375-0.57-0.386-1.365-0.275-1.144 0.161-1.686 0.53-1.818 1.242-0.08 0.431-0.014 0.698 0.278 1.118 0.211 0.303 0.495 0.572 0.632 0.598 0.185 0.034 0.196 0.081 0.042 0.186-0.274 0.185-7.139-0.925-7.098-1.149 0.016-0.085 0.147-0.176 0.291-0.202 0.499-0.09 0.172-1.714-0.454-2.254-0.611-0.528-0.921-0.528-0.88-1e-3 0.059 0.756 6e-3 0.867-0.427 0.903-0.583 0.048-0.881-0.233-0.404-0.382 0.973-0.304 0.249-1.467-0.966-1.552-1.417-0.1-1.915 0.601-1.578 2.22 0.061 0.292-8e-3 0.287-1.581-0.119-0.916-0.236-2.083-0.356-2.996-0.784-0.035-0.089-0.162-0.144-0.281-0.122-0.151 0.027-0.208-0.152-0.187-0.59 0.021-0.418 0.31-0.909 0.07-1.238-0.199-0.272-0.469-0.701-0.6-0.954-0.23-0.446-0.995-0.504-2.028-0.65-0.978-0.138-1.672 1.13-1.236 2.259l0.217 0.561-1.248-0.33c-2.192-0.58-3.374-1.047-5.383-1.702-0.054-0.07 0.201-0.207 0.568-0.304 0.619-0.164 0.676-0.222 0.785-0.8 0.156-1.107-0.408-1.678-1.083-2.023-0.644-0.457-2.121-0.474-2.632-0.03-0.475 0.412-0.513 1.287-0.086 1.952l0.313 0.488-0.766-0.142c-1.169-0.222-2.542-0.869-3.847-1.123-1.246-0.299-1.464-0.358-3.608-0.973-1.25-0.359-1.662-0.678-0.695-0.537 0.823 0.12 0.819 0.12 1.631-0.124l0.731-0.219 0.084-0.831c0.046-0.457 0.048-0.881 5e-3 -0.943-0.457-0.499-1.085-1.014-1.675-0.945-0.503-0.387-1.409-0.513-2.147-0.298-0.588 0.171-0.66 0.247-0.832 0.88-0.169 0.625-0.143 0.765 0.269 1.445 0.25 0.415 0.45 0.779 0.444 0.81-0.016 0.088-1.503-0.274-1.643-0.399-0.068-0.061-0.691-0.253-1.386-0.427s-1.495-0.404-1.779-0.512c-0.788-0.299-0.89-0.332-1.937-0.633-0.537-0.154-1.205-0.386-1.485-0.514-0.883-0.405-1.957-0.841-2.498-1.016-0.287-0.092-0.88-0.344-1.318-0.56s-0.928-0.449-1.089-0.518c-1.503-0.646-1.825-0.809-1.806-0.914 0.013-0.067 0.315-0.067 0.672-1e-3 0.849 0.156 1.795 0.071 2.193-0.199 0.175-0.119 0.442-0.238 0.592-0.266 0.797-0.805 0.73-2.584-0.688-2.739-0.765-0.679-2.742-0.795-3.686-0.216-0.676 0.418-0.732 1.549-0.209 2.392 0.534 0.656 0.25 0.646-0.804-0.028-1.103-0.706-1.371-1.243-1.043-2.087 0.612-1.581 1.699-2.508 8.559-3.52 1.25-0.14 2.747-0.487 4.201-0.171l0.838 0.062-0.314 0.305c-0.346 0.336-0.594 1.338-0.414 1.668 0.66 1.21 0.661 1.211 1.5 1.19 0.96-0.024 1.88-0.312 2.005-0.627 0.564-1.942-0.16-2.281-1.756-2.787 2.635-0.06 3.954 0.188 4.674 0.338-0.741 1.749-0.765 2.334-1.066 3.231-0.561 1.219-0.648 1.457-0.015 2.765 0.529 1.89 5.943 3.87 7.888 4.71 0.289 0.054 0.754 0.206 1.034 0.337s1.394 0.451 2.475 0.711c1.082 0.26 2.204 0.537 2.493 0.616 0.29 0.079 1.344 0.34 2.342 0.58 0.999 0.24 2.027 0.507 2.285 0.593 0.453 0.151 8.123 1.644 8.289 1.613 0.045-8e-3 0.739 0.085 1.542 0.207s1.783 0.209 2.177 0.192 0.962 0.013 1.263 0.067c0.851 0.152 2.838-0.039 3.141-0.303 0.187-0.163 0.287-0.455 0.318-0.932 0.071-1.096 0.093-1.181 0.883-3.506 0.871-2.565 1.187-4.445 1.198-7.119 2e-3 -2.234-0.638-4.097-1.422-6.356-1.793-5.347-7.235-9.889-13.349-11.098zm-0.472 2.057c4.506 0.821 8.336 3.911 10.531 7.063 2.577 3.847 2.22 8.066 1.787 13.259-0.332 0.968-0.622 1.862-0.644 1.987s-0.138 0.314-0.258 0.421c-0.12 0.106-0.308 0.563-0.419 1.015s-0.254 0.855-0.319 0.895c-0.146 0.091-3.327-0.12-3.4-0.225-0.083-0.119 0.555-3.678 0.685-3.82 0.063-0.069 0.176-0.323 0.251-0.563 0.124-0.397 0.087-0.458-0.411-0.677-0.462-0.204-0.536-0.304-0.475-0.642 0.091-0.495-0.478-0.973-0.973-0.819-0.436 0.136-0.581 1.031-0.273 1.685 0.209 0.443 0.203 0.699-0.049 1.922-0.159 0.776-0.266 1.707-0.236 2.068s0.029 0.672-2e-3 0.691c-0.11 0.068-2.521-0.281-2.78-0.402-0.173-0.081-0.217-0.208-0.129-0.372 0.145-0.267 0.253-2.266 0.161-2.958-0.047-0.353 8e-3 -0.441 0.34-0.545 0.467-0.146 0.955-0.889 0.764-1.164-0.069-0.1-0.104-0.302-0.077-0.448 0.059-0.315-0.33-0.662-1.19-1.067-0.516-0.242-0.715-0.267-1.159-0.142-0.607 0.172-0.961 0.86-0.565 1.101 0.331 0.201 0.223 0.414-0.173 0.341-0.463-0.087-0.69-0.658-0.402-1.013 0.236-0.293 0.246-1.06 0.016-1.283-0.363-0.351-1.1-0.311-1.818 0.098-0.595 0.339-0.83 0.603-1.235 1.388-0.582 1.126-0.657 1.449-0.556 2.368 0.092 0.825 0.225 1.035 0.644 1.006 0.246-0.017 0.493-0.341 1.04-1.361 0.797-1.486 0.654-1.535 0.957-0.605 0.152 0.468 0.706 0.517 1.23 0.698l0.635 0.218-0.05 0.804c-0.028 0.442-0.085 1.232-0.128 1.755l-0.078 0.951-2.039-0.408c-2.687-0.537-3.023-0.639-2.974-0.906 0.066-0.356-0.179-0.903-0.819-1.828-0.332-0.478-0.576-0.885-0.543-0.904 0.032-0.02 0.286-0.106 0.563-0.193 0.929-0.29 1.296-0.594 1.571-1.301 0.262-0.705 0.48-3.264-0.616-3.525-0.35-0.136-0.516 0.418-0.531 0.827-0.015 0.431-0.365 0.469-0.49 0.151-0.034-0.085-0.259-0.138-0.501-0.118-0.371 0.031-0.452 0.114-0.507 0.521-0.095 0.693 0.207 1.309 0.687 1.398 0.329 0.061 0.359 0.105 0.173 0.258-0.451 0.371-1.623 0.457-2.578 0.19-0.498-0.14-0.985-0.348-1.081-0.463-0.213-0.252-0.235-1.161-0.036-1.482 0.113-0.184 0.176-0.12 0.301 0.309 0.072 1.049 1.261 2.009 1.717 0.231 0.071-0.383-0.729-1.118-1.136-1.045-0.475 0.086-0.358-0.242 0.224-0.629 0.74-0.494 1.195-0.544 2.077-0.413 0.68 0.101 1.39 0.682 1.679-0.247 0.341-1.091 0.043-1.36-0.164-2.034-0.611-0.996-1.81-0.948-1.306 0.693-0.725-0.193-0.692-0.18-1.642-0.047-0.257 0.14-0.363 0.096-0.196-0.267 0.135-0.294 0.124-0.565-0.041-0.984-0.464-1.178-1.546-1.051-1.799 0.211-0.07 0.351-0.065 0.729 0.012 0.839 0.165 0.238 0.069 0.907-0.125 0.871-0.074-0.014-0.201 0.085-0.282 0.221-0.76 1.245-1.321 1.726-1.036 3.519 0.197 0.857 1.059 1.678 1.469 1.755 0.123 0.022 0.211 0.109 0.195 0.192-0.015 0.083-0.124 0.133-0.242 0.111-0.73-0.136-2.125 0.722-2.248 1.381-0.042 0.226-0.162 0.224-0.984-0.02-1.891-0.562-4.753-1.676-7.222-3.019l-0.807-0.49 0.446-2.038c2.434-7.061 6.521-10.503 12.089-14.05 2.593-1.132 5.139-1.325 7.5-0.895zm0.433 1.853c-0.863-0.157-1.934-0.175-3.201-0.105-2.73 0.28-4.629 1.174-7.262 3.326-1.106 0.897-3.502 2.623-4.15 4.639-0.226 0.852-0.22 1.019 0.06 1.673 0.465 1.086 1.066 1.322 2.426 0.956 0.573-0.154 1.089-0.327 1.148-0.384 0.059-0.058 0.275-0.178 0.48-0.267s0.992-0.642 1.748-1.228c2.152-1.67 3.917-2.83 5.201-3.419 1.134-0.519 2.6-0.879 3.999-0.825l0.62 0.065-0.144 0.622c-0.103 0.448-0.074 0.712 0.102 0.941 0.135 0.174 0.216 0.476 0.18 0.671-0.058 0.309-0.14 0.34-0.647 0.246-0.864-0.161-2.24 0.282-2.828 0.91-0.505 0.54-0.823 1.566-0.732 2.359 0.185 1.596 0.973 3.164 1.786 3.554 0.444 0.214 1.429 0.378 1.919 0.32 0.091-0.01 0.217-0.211 0.281-0.446 0.063-0.234 0.435-0.271 0.647-0.632l0.238-1.106c-0.137-0.683-0.508-0.779-1.073-0.859-0.347 0.056-1.002 0.798-1.098 1.246-0.074 0.344-0.245 0.3-0.662-0.17-0.659-0.743-0.453-2.252 0.398-2.918 1.555-1.051 4.576-0.06 5.413 1.827 0.51 1.035 0.359 1.439 0.167 1.976-0.115 0.323-0.28 0.889-0.366 1.26-0.145 0.626-0.128 0.683 0.24 0.796 1.184 0.337 1.264-0.222 1.616-1.145 0.413-1.194 0.281-2.678-0.551-3.854 0.015-0.08 0.371-0.383 0.791-0.674 0.62-0.428 0.786-0.637 0.875-1.093 0.138-0.693-0.028-2.505-1.183-1.579-0.169-0.032-0.481 0.49-0.994 0.824-0.843 0.549-0.999 0.595-1.629 0.476-1.018-0.193-1.117-0.336-0.786-1.128 0.209-0.499 0.244-0.774 0.146-1.127-0.129-0.464-0.398-1.221-0.746-1.324 0.357 0.021 0.391-0.052 0.481-0.588 0.116-0.698-0.151-1.723-0.628-2.41-0.403-0.772-1.172-1.204-2.282-1.406zm-0.94 1.452c0.607 0.114 1.167 0.343 1.649 0.713 0.244 0.259 0.227 0.278-0.36 0.403-3.036 0.627-5.101 0.45-8.104 2.995-2.382 1.769-7.623 5.078-3.101 0.475 0.056-0.033 0.331-0.269 0.611-0.525 0.28-0.257 0.823-0.697 1.208-0.979s0.992-0.75 1.35-1.039c1.829-1.385 4.581-2.449 6.747-2.043zm4.847 10.251c-0.184-0.033-0.364-0.024-0.493 0.02-0.779 0.409-1.004 1.174-0.53 1.803 0.187 0.249 0.443 0.434 0.568 0.411 0.126-0.023 0.291-0.03 0.367-0.016 0.185 0.035 0.787-0.892 0.871-1.341 0.05-0.531-0.378-0.804-0.783-0.877zm-36.193-1.351c-0.203-0.046-0.412-0.011-0.827 0.076-0.866 0.182-0.805 0.056-0.927 0.97-0.108 0.608-0.081 0.868 0.108 1.066 0.472 0.496 1.128 0.43 2.071-0.21 0.325-0.22 0.559-0.524 0.627-0.815 0.098-0.417 0.047-0.502-0.492-0.821-0.246-0.146-0.401-0.23-0.56-0.266zm51.599 11.929c-0.245-0.046-0.48-0.072-0.68-0.072h-0.575l-0.047 0.712c-0.026 0.391-0.025 0.742 1e-3 0.78s0.476 0.2 1 0.362c1.039 0.32 1.843 0.451 2.12 0.345 0.098-0.037 0.221-0.3 0.274-0.584 0.07-0.379 0.01-0.597-0.23-0.824-0.292-0.277-1.127-0.583-1.863-0.719zm-25.953-3.219c0.451 0.094 0.607 0.211 0.863 0.52 0.212 0.255 0.375 0.524 0.361 0.596-0.013 0.073-0.657 0-1.431-0.163-2.137-0.447-2.844-0.644-2.818-0.783 0.048-0.258 1.454-0.409 2.461-0.264 0.231 0.033 0.414 0.062 0.564 0.094zm-22.226-2.771c-0.326-0.052-0.71-0.046-1.149 0.016-0.607 0.086-0.773 0.183-0.913 0.532-0.095 0.234-0.161 0.517-0.148 0.627 0.013 0.111 0.03 0.394 0.038 0.63 9e-3 0.251 0.221 0.634 0.513 0.926 0.436 0.437 0.606 0.509 1.369 0.577 1.802 0.159 2.395-0.232 2.324-1.534-0.036-0.662-0.1-0.803-0.389-0.856-0.19-0.036-0.495-0.233-0.678-0.439-0.225-0.253-0.548-0.413-0.967-0.479zm18.8 12.416c-0.272-0.064-0.805 0.102-1.025 0.384-0.461 0.59-1.282 3.004-1.601 4.709-0.378 2.019-0.492 2.263-1.012 2.169-0.733-0.131-1.82 0.983-2.257 2.311-0.195 0.592-0.202 0.882-0.036 1.478 0.326 1.173 0.607 1.66 1.103 1.907 0.64 0.319 0.612 0.315 1.508 0.199 1.724-0.223 3.178-2.097 2.988-3.85-0.053-0.482-0.226-0.963-0.432-1.194l-0.343-0.387 0.466-1.947c0.271-1.134 0.705-2.479 1.04-3.222 0.563-1.253 0.57-1.283 0.358-1.72-0.118-0.244-0.295-0.461-0.393-0.482-0.097-0.021-0.188-0.115-0.202-0.21-0.011-0.077-0.072-0.124-0.162-0.145zm-2.541 9.689c0.279 0.073 0.119 0.366-0.493 0.932-0.759 0.704-0.958 0.665-0.67-0.132 0.264-0.731 0.321-0.783 0.9-0.815 0.111-6e-3 0.199-2e-3 0.263 0.015zm-22.231-3.416 0.254 0.721c0.312 0.889 0.413 0.983 1.072 0.999 0.513 0.013 0.523 0.026 0.425 0.552-0.055 0.296-0.191 0.684-0.301 0.863-0.276 0.446-1.345 1.193-1.977 1.381-0.842 0.25-1.26 0.098-1.352-0.491-0.184-1.178 0.378-2.546 1.502-3.654zm50.69 10.901c0.069 0.01 0.148 0.036 0.245 0.073 0.755 0.294 1.063 0.701 0.959 1.264-0.052 0.279-0.241 0.624-0.419 0.765-0.378 0.3-1.471 0.297-1.817-4e-3 -0.331-0.288-0.164-1.002 0.387-1.654 0.305-0.362 0.435-0.474 0.645-0.444z" fill="#030303"/>
    </g>
   </g>
   <g id="ag" width="129.70772mm" height="192.24713mm" rx="0" ry="0">
    <g id="ah">
     <g id="ai" class="fills">
      <path rx="0" ry="0" d="m1243.6 151.96c5.12 4.987 5.62 17.307 3.959 25.448 4.672 3.357 1.136 12.827 1.136 12.827-2.739 0.05-2.653-9.455-2.653-9.455l-4.021 6.459-1.144-5.52-1.463-1.274-3.884 7.447s-4.841 0.534 1.768-12.665c2.129-7.855-0.617-17.188 6.302-23.267zm9.571 49.734c0.98 0.59 1.064 2.4 0.203 4.398 0.358 0.117 0.706 0.275 1.034 0.469 0.174 0.104 0.341 0.217 0.501 0.339 0.804-0.75 1.815-0.957 2.546-0.523 0.855 0.509 1.106 1.758 0.595 2.97 1.911 1.153 2.552 3.601 1.434 5.483-0.539 0.908-1.424 1.56-2.461 1.813-1.036 0.253-2.139 0.086-3.065-0.464-0.973-0.578-1.665-1.528-1.91-2.621-0.087 0.864-0.379 1.735-0.846 2.522-1.439 2.422-4.149 3.468-6.055 2.336-0.915-0.544-1.518-1.527-1.677-2.733-0.158-1.207 0.141-2.538 0.832-3.701 0.422-0.711 0.974-1.33 1.607-1.805-0.748-0.853-0.909-1.981-0.403-2.833 0.434-0.73 1.286-1.137 2.238-1.068 0.193-0.565 0.458-1.135 0.78-1.678 1.374-2.312 3.451-3.614 4.647-2.904zc-4e-3 -3e-3 -2e-3 -1e-3 0 0zm-23.354-0.025c3.176 2.803 2.444 5.018 2.092 8.657 3.136 0.01 5.386 3.832 4.305 6.033 0.308 1.386 0.061 2.872-0.687 4.131-1.556 2.62-4.81 3.559-7.269 2.099-2.23-1.325-3.071-4.203-1.968-6.734-3.121-1.389-2.555-4.839 0.133-5.644-0.968-0.906-1.297-2.075-0.814-2.888 0.384-0.647 1.223-0.961 2.216-0.83-0.11-2.171-1.723-6.245 1.992-4.824zm15.373 20.371c0.513 0.304 0.818 0.913 0.848 1.69 0.029 0.778-0.22 1.661-0.692 2.456-0.514 0.865-1.244 1.544-2.002 1.863-0.067 0.329-0.19 0.646-0.363 0.937-0.384 0.647-0.993 1.126-1.693 1.329-0.699 0.204-1.432 0.117-2.037-0.242-0.401-0.239-0.728-0.586-0.947-1.008-0.663 0.069-1.369-0.094-1.984-0.46-1.385-0.823-1.95-2.43-1.262-3.589 0.497-0.836 1.539-1.24 2.653-1.028-0.021-0.348-3e-3 -0.703 0.055-1.054 0.152-0.915 0.564-1.746 1.146-2.309 0.581-0.564 1.285-0.814 1.956-0.695 0.997 0.176 1.769 1.135 1.971 2.449 0.84-0.589 1.718-0.716 2.351-0.339z" fill="#fff" overflow="visible"/>
     </g>
    </g>
    <g id="aj">
     <g id="ak" class="fills">
      <path rx="0" ry="0" d="m1244.1 151.83c0.059 0.033 0.117 0.071 0.177 0.112 5.132 4.294 6.353 16.339 4.296 23.228-0.049 0.38-0.228 0.987-0.611 2.065-0.167 0.473-0.05 0.6 0.264 0.286 1.886-0.276 2.62 2.603 2.622 4.46 0.052 0.973-0.082 2.806-0.245 3.352-0.062 0.206-0.145 0.871-0.185 1.478-0.039 0.607-0.114 1.174-0.165 1.261-0.052 0.086-0.077 0.231-0.056 0.321 0.021 0.091-0.095 0.577-0.258 1.08-0.47 1.453-1.29 2.018-2.069 1.425-0.165-0.126-0.411-0.302-0.547-0.392-1.357-1.314-0.672-4.955-1.418-7.471-0.117-0.624-0.271-1.169-0.344-1.211-0.072-0.042-0.44 0.157-0.819 0.442-0.76 0.567-1.944 1.51-2.735 0.521 0 0-0.02 0.107-0.064 0.357-0.067 0.977-0.156 1.404-0.023 2.135l2e-3 0.558 0.28-0.27c0.154-0.148 0.307-0.388 0.34-0.532 0.089-0.387 0.415-0.859 0.779-1.128 0.447-0.33 0.965-0.032 0.88 0.507-0.138 0.869-0.464 1.83-0.806 2.371-0.444 0.702-1.036 0.925-1.883 0.71-1.269-0.391-1.052-2.513-1.107-4.405-0.019-0.298 0.01-0.691 0.065-0.875 0.079-0.262 4e-3 -0.442-0.349-0.842-0.553-0.627-0.536-0.617-0.677-0.383-0.064 0.106-0.325 0.469-0.58 0.806-0.544 0.716-0.82 1.478-1.182 3.265-0.844 4.167-0.799 4.076-1.867 3.799-2.339-0.657-2.125-2.982-2.35-5.109 0.034-0.432 0.066-0.89 0.071-1.018 0.022-0.559 0.363-2.915 0.534-3.698 0.218-0.996 1.016-2.477 1.623-3.013 0.218-0.192 0.66-0.449 0.984-0.572l0.588-0.223-0.062-0.882c-0.394-6.65 1.403-15.256 3.451-19.579 0.566-1.256 1.641-3.967 3.446-2.936zm-0.509 1.296c-0.059-0.029-0.113-0.041-0.163-0.035-0.791 0.199-2.177 2.695-3.442 7.704 0.792-0.074 3.323-0.174 4.62-0.046 0.605 0.063 1.574 0.371 2.278 0.224-0.668-3.179-2.418-7.409-3.293-7.847zm3.674 9.158c-0.552-0.405-0.553 1.984-0.7 5.321 0.132 2.019-0.188 4.487-0.48 6.716-6e-3 0.956-0.039 1.274-0.232 2.263-0.091 0.463-0.137 0.893-0.104 0.956 0.11 0.207 0.379-0.185 0.714-1.031 0.601-1.521 0.574-2.55 0.835-3.733 0.651-3.037 0.779-6.899-0.033-10.492zm-1.537-0.131c-0.053-0.038-0.139-0.06-0.261-0.065-2.752-0.354-4.87-0.197-5.558 0.196-0.171 0.333-0.333 0.725-0.407 1.769 0.015 0.567-0.125 0.732 0.085 0.457 1.341-1.036 2.138-0.91 2.833-0.89 2.186 0.158 2.675 2.373 2.214 4.357-0.203 0.517 0.44 0.231 0.526 0.793 0 0 0.128-0.239 0.137-0.705 0.066-1.581 0.2-4.707 0.493-5.754 0.011-0.068-9e-3 -0.121-0.062-0.158zm-2.571 2.719c-0.158-0.095-0.345-0.151-0.561-0.158 0.685 0.275 0.788 0.749 0.881 1.171 3e-3 0.236 0.018 0.325-0.301 0.403-0.318 0.079-0.323 0.09-0.175 0.392 0.283 0.576-0.266 1.056-1.125 0.982-0.623-0.053-0.882-0.25-1.052-0.8-0.316-1.018 0.145-1.974 1.008-2.097 0.312-0.044 0.529-0.074 0.448-0.123-0.482-0.239-1.402 0.236-1.678 0.658-0.614 1.157-0.326 2.928 2.031 3.28 1.24 0.368 1.814-2.935 0.524-3.708zm-0.553 1.158c-0.377-0.224-1.038-0.273-1.053 0.112-0.011 0.322 0.385 0.729 0.819 0.361 0.536-0.232 0.56-0.279 0.234-0.473zm2.644 3.662c-0.084-0.05-0.179-0.047-0.211 7e-3 -0.109 0.184-0.742-0.142-0.835-0.43-0.081-0.252-0.122-0.257-0.441-0.062-0.736 0.452-1.567 0.353-2.704-0.323-0.657-0.391-1.296-1.08-1.304-1.407-4e-3 -0.19-0.305-0.383-0.386-0.248-0.845 2.309-0.477 5.048-0.469 7.493-0.041 0.07 0.113 0.849 0.343 1.733 0.332 1.272 0.448 1.626 0.835 1.901 0.236 0.114 1.835 0.486 2.281 0.513 0.282 0.018 0.857 0.056 1.278 0.085s0.795 4e-3 0.83-0.056c0.065-0.109 0.14-0.636 0.242-1.708 0.154-1.564 0.49-3.325 0.482-5.118l-0.59 0.231c-0.292 0.087-0.88-0.222-0.813-0.494 0.043-0.618 0.08-0.867 0.803-0.82 0.233 0.015 0.509 0.256 0.608 0.552 0.146-4e-3 0.199-1.761 0.051-1.849zm-0.552 4.132c0.156 0.101 0.257 0.236 0.235 0.37-0.059 0.355-0.378 0.812-0.606 0.868-0.349 0.086-0.623-0.164-0.72-0.659-0.111-0.569-0.09-0.613 0.356-0.723 0.241-0.059 0.534 0.014 0.735 0.144zm3.722 4.914c-0.561-0.324-0.404-0.204-0.599-0.355-0.097-0.058-1.092 1.718-1.178 2.101 0 0.806 0.678 0.385 1.061 3.208 0.048 0.398 0.106 0.808 0.129 0.912 0.023 0.103 0.077 0.59 0.119 1.081 0.043 0.491 0.137 1.339 0.209 1.885 0.073 0.545 0.106 1.035 0.075 1.088-0.032 0.053-7e-3 0.127 0.055 0.163 0.062 0.037 0.134 0.029 0.161-0.016 0.076-0.13 0.354-1.668 0.629-3.473 0.179-1.179 0.549-2.968-0.011-5.199-0.238-0.979-0.349-1.215-0.65-1.395zm-4.063-1.891c0.451 0.293 0.343 0.936-0.28 1.017-0.119 0.015-0.358-0.06-0.532-0.166-0.291-0.18-0.296-0.227-0.057-0.628 0.23-0.388 0.299-0.422 0.641-0.325 0.088 0.025 0.163 0.06 0.228 0.102zm0.299 3.468c-0.08-0.056-0.636-0.135-1.293-0.182-0.702-0.049-1.494-0.144-1.76-0.21-0.265-0.065-0.572-0.14-0.681-0.165-0.726-0.244 0.83 1.725 1.625 2.147 0.235 0.18 0.517 0.177 0.843-0.119 0.457-0.434 0.862-0.513 1.266-1.471zc8e-3 7e-3 5e-3 4e-3 0 0zm-7.246-3.819c-0.762 0.549-1.513 1.822-1.868 3.483-0.415 2.033-0.59 4.24-0.368 6.265 0.202 0.605 0.463 0.875 0.608 0.63 0.047-0.08 0.113-0.46 0.147-0.847 0.099-1.133 0.748-3.496 1.197-4.361 0.436-0.84 1.281-1.856 1.555-1.869 0.189-9e-3 0.201 0.038-0.233-0.863-0.398-0.833-0.786-1.514-1.038-2.438zm6.474 15.112c0.109 0.063 0.197 0.321 0.35 0.896 0.471 1.789 0.432 3.978 0.504 5.972 0.194 2.709-0.191 6.007-0.434 8.945-0.058 0.73-0.148 1.4-0.201 1.488-0.052 0.088-0.084 0.299-0.07 0.47 0.042 0.534-0.435 3.405-0.865 5.197-0.213 0.891-0.248 0.959-0.576 1.116-0.261 0.125-0.404 0.113-0.567-0.047-0.12-0.119-0.297-0.279-0.393-0.356-0.242-0.196-0.262-0.372-0.121-1.063 0.224-1.098 0.71-3.682 0.745-3.964 0.019-0.153 0.054-0.435 0.078-0.626 0.024-0.192 0.106-0.815 0.183-1.386 0.209-1.585 0.285-2.982 0.446-4.516 0.175-1.534 0.221-3.009 0.328-4.511-0.012-2.146-8e-3 -4.264 0.19-6.251 0.38-0.229-0.287-0.965 0.167-1.293 0.099-0.077 0.171-0.109 0.236-0.071zm-2.648-1.089c0.021 0.012 0.042 0.031 0 0zc0.136 0.421 0.44 1.529 0.439 2.283-0.043 0.072-0.048 0.369-0.012 0.66 0.088 0.73 0.011 1.643 0.061 2.446-0.034 0.552-0.058 1.106-0.053 1.232 0.073 2.947-0.244 5.195-0.591 8.538-0.133 2.168-0.5 4.494-0.7 6.756-0.181 1.105-0.24 2.808-0.645 4.329-6e-3 0.123-0.124 0.493-0.262 0.822-0.248 0.591-0.257 0.597-0.722 0.543-0.41-0.047-0.484-0.09-0.571-0.327-0.055-0.15-0.069-0.398-0.033-0.55 0.037-0.152 0.043-0.493 0.014-0.757-0.03-0.264 0.043-0.792 0.162-1.173s0.227-0.855 0.24-1.053c0.012-0.198 0.122-0.839 0.243-1.424 1.069-5.223 1.375-12.59 1.627-15.393 0.067-0.998 0.164-7.307 0.803-6.932zm12.279 10.364c0.559 0.345 1.132 0.86 1.303 1.241 0.419 0.934 0.506 1.321 0.478 2.13-0.029 0.851 0.062 1.02 0.474 0.877 1.037-0.36 2.669 0.619 3.34 2.003 0.165 0.34 0.365 0.722 0.444 0.851 0.079 0.128 0.101 0.309 0.048 0.402-0.142 0.251 0.16 0.83 0.59 1.133 1.05 0.737 1.108 4.181 0.1 5.878-0.296 0.5-0.503 0.705-0.902 0.898-1.402 0.677-3.899 0.964-4.835 0.555-0.935-0.402-1.161-0.288-1.839-1.198-0.32-0.19-0.327-0.186-0.461 0.286-0.265 0.931-0.372 1.136-0.978 1.867-1.128 1.361-2.304 1.864-3.688 1.577-0.329-0.068-0.61-0.127-0.623-0.131s-0.125-0.132-0.248-0.285c-0.305-0.38-0.119-0.627 0.353-0.469 0.725 0.243 1.281-8e-3 2.266-1.025 0.661-0.681 0.973-1.096 1.185-1.575 0.329-0.743 0.56-2.181 0.438-2.731-0.139-0.63 0.15-0.78 0.804-0.417 0.503 0.28 0.578 0.377 0.689 0.881 0.074 0.334 0.288 0.732 0.523 0.971 0.22 0.223 0.4 0.463 0.402 0.535 5e-3 0.205 0.886 0.868 1.179 0.888 0.146 9e-3 0.432 0.036 0.635 0.058 0.498 0.054 2.168-0.311 2.843-0.621 0.636-0.292 0.948-0.747 1.255-1.827 0.212-0.746 0.328-1.98 0.232-2.47-0.04-0.205-0.198-0.34-0.643-0.55-0.666-0.315-0.769-0.491-0.799-1.369-0.011-0.313-0.131-1.008-0.267-1.543-0.207-0.812-0.313-1.011-0.641-1.206-0.31-0.184-0.486-0.193-0.839-0.04-0.682 0.295-1.275 0.895-1.615 1.633-0.377 0.82-0.613 0.918-1.27 0.527-0.611-0.362-0.619-0.482-0.173-2.493 0.186-0.834 0.321-1.628 0.302-1.762-0.019-0.135-0.025-0.408-0.013-0.606 0.055-0.906-0.294-1.752-0.784-1.9-0.399-0.121-1.267 0.214-1.681 0.648-0.537 0.564-1.047 2.191-0.957 3.057 0.029 0.278 0.021 0.559-0.017 0.624-0.039 0.065-0.02 0.148 0.042 0.185 0.215 0.127-0.072 0.372-0.452 0.386-0.583 0.022-0.951-0.265-1.109-0.865-0.077-0.292-0.165-0.546-0.195-0.564-0.076-0.045-0.19 0.44-0.263 1.114-0.1 0.929-0.306 1.35-0.71 1.449-0.483 0.119-0.737-0.068-0.876-0.643-0.128-0.533 0.219-2.104 0.633-2.866 0.225-0.414 0.291-0.449 0.803-0.419l0.557 0.031 0.239-0.605c0.131-0.333 0.462-0.977 0.734-1.431 0.423-0.705 0.581-0.868 1.07-1.108 0.572-0.281 1.273-0.398 2.014-0.338 0.237 0.019 0.567 0.165 0.903 0.372zm-14.958-7.164c0.055 0.031 0.132 0.141 0.244 0.372 0.321 0.671 0.284 1.418 0.345 2.138 0.143 2.054 0.077 3.676-0.327 6.762-0.077 1.057-0.119 1.132-0.616 1.088-0.292-0.026-0.437-0.101-0.551-0.286-0.799-1.308-0.092-2.271-0.022-4.077 0.121-1.659 0.416-3.488 0.637-5.195 0.158-0.262 0.126-0.892 0.29-0.802zm-8.284 7.854c0.516 0.31 1.047 0.686 1.288 0.932 0.682 0.695 1.393 1.906 1.672 2.845 0.315 1.063 0.196 2.095-0.425 3.67-0.216 0.549-0.365 1.015-0.329 1.035s0.357 0.11 0.713 0.2c0.722 0.181 2.002 0.891 2.211 1.227 0.074 0.119 0.347 0.491 0.607 0.827 0.424 0.547 1.04 1.959 1.139 2.612 0.021 0.136 0.014 0.53-0.015 0.875-0.05 0.608-0.066 0.638-0.498 0.937-0.554 0.383-0.839 0.242-0.855-0.424-0.022-0.851-0.832-3.285-1.163-3.493-0.08-0.05-0.199-0.218-0.264-0.374-0.152-0.366-0.891-0.965-1.441-1.168-0.236-0.087-0.742-0.111-1.123-0.052-0.381 0.058-0.811 0.035-0.956-0.051s-0.328-0.123-0.407-0.082c-0.223 0.114-0.385-0.545-0.172-0.7 0.42-0.306 0.859-0.91 1.015-1.397 0.092-0.289 0.247-0.71 0.344-0.936 0.521-1.218 0.206-3.304-0.633-4.19-0.121-0.127-0.334-0.392-0.473-0.588-0.684-0.962-2.018-1.572-2.322-1.061-0.257 0.434-0.276 0.942-0.045 1.229 0.122 0.152 0.223 0.515 0.224 0.807s0.065 0.633 0.142 0.759c0.077 0.125 0.091 0.348 0.031 0.494-0.077 0.186-0.02 0.347 0.187 0.534 0.47 0.424 0.676 0.838 0.489 0.984-0.305 0.238-1.04 0.459-1.214 0.365-0.095-0.052-0.361-0.105-0.592-0.119-0.231-0.015-0.464-0.053-0.519-0.085-0.055-0.033-0.263-0.019-0.464 0.03-0.33 0.082-0.373 0.135-0.462 0.584-0.135 0.675 0.188 1.83 0.685 2.45 0.226 0.282 0.374 0.575 0.329 0.651-0.085 0.144-1.122 0.302-1.297 0.198-0.226-0.134-0.722 0.317-0.972 0.883-0.364 0.823-0.374 1.449-0.037 2.29 0.272 0.68 0.792 1.224 0.936 0.98 0.083-0.139 1.491-0.438 2.071-0.44 0.536-2e-3 0.802 0.124 1.132 0.535 0.222 0.276 0.219 0.286-0.133 0.455-0.199 0.095-0.797 0.279-1.33 0.407-0.941 0.228-0.974 0.249-1.174 0.747-0.337 0.837-0.293 2.33 0.076 2.548 0.07 0.042 0.103 0.119 0.073 0.17-0.068 0.113 1.109 1.843 1.459 2.145 0.138 0.119 0.457 0.344 0.709 0.5 0.403 0.249 0.446 0.323 0.345 0.602-0.093 0.261-0.145 0.287-0.285 0.146-0.095-0.095-0.358-0.238-0.584-0.317-1.203-0.422-2.978-2.091-3.379-3.178-0.393-1.064-0.459-2.176-0.174-2.948 0.231-0.628 0.226-0.687-0.075-0.896-0.178-0.123-0.479-0.365-0.669-0.537s-0.388-0.327-0.44-0.344c-0.053-0.017-0.068-0.078-0.034-0.135 0.033-0.056-0.023-0.195-0.124-0.308-0.306-0.341-0.399-1.8-0.167-2.613 0.182-0.637 0.277-0.804 0.657-1.149 0.244-0.222 0.594-0.475 0.777-0.563 0.324-0.156 0.326-0.178 0.059-0.781-0.787-1.771-0.017-3.137 1.849-3.286 0.33-0.026 0.673-4e-3 0.764 0.05 0.09 0.054 0.267 0.062 0.393 0.019 0.185-0.065 0.19-0.244 0.024-0.957-0.112-0.483-0.268-0.915-0.345-0.961-0.128-0.076-0.399-0.984-0.53-1.773-0.153-0.929 0.469-1.447 1.696-1.411 0.476 0.014 1.006 0.083 1.179 0.154 0.232 0.094 0.536 0.256 0.846 0.441zm15.445 19.696c0.575 0.36 0.941 0.953 1.12 1.806 0.15 0.717 0.1 2.016-0.091 2.342-0.056 0.097-0.088 0.23-0.07 0.297 0.017 0.067-0.151 0.474-0.374 0.906-0.333 0.642-0.502 0.843-0.938 1.115-1.09 0.678-2.314 0.927-3.682 0.749-0.449-0.058-0.856-0.26-0.774-0.384 0.029-0.045 0.661-0.251 1.404-0.458 2.027-0.566 2.703-1.139 3.032-2.569 0.201-0.872-0.044-2.694-0.391-2.9-0.386-0.229-0.99 0.238-1.587 1.229l-0.542 0.898-0.593-0.074c-0.326-0.041-0.677-0.16-0.78-0.263-0.104-0.106-0.172-0.55-0.152-1.008 0.019-0.451-0.03-0.93-0.107-1.064-0.078-0.134-0.192-0.425-0.255-0.647-0.112-0.402-0.358-0.649-0.544-0.547-0.292 0.159-1.153 3.133-1.063 3.672 0.064 0.389-0.431 1.128-0.781 1.165-0.428 0.044-1.203-0.427-1.555-0.946-0.218-0.322-0.376-0.44-0.659-0.496-0.316-0.062-0.401-0.015-0.559 0.308-0.102 0.209-0.156 0.617-0.12 0.906s0.038 0.57 5e-3 0.626c-0.033 0.055 0.038 0.36 0.157 0.676 0.44 1.172 0.45 1.557 0.036 1.491-0.65-0.104-1.337-0.918-1.632-1.934-0.084-0.29-0.205-0.514-0.27-0.498s-0.093-0.084-0.063-0.221c0.03-0.138 0.07-0.553 0.089-0.923 0.023-0.45 0.144-0.856 0.366-1.231 0.302-0.508 0.384-0.565 0.892-0.62 0.554-0.06 1.753 0.334 2.111 0.695 0.279 0.28 0.43 0.054 0.599-0.9 0.188-1.055 0.656-2.146 1.211-2.823 0.335-0.408 0.451-0.461 0.924-0.427 0.545 0.038 1.416 0.396 1.549 0.636 0.039 0.071 0.225 0.271 0.413 0.444s0.413 0.458 0.501 0.633c0.143 0.288 0.191 0.313 0.497 0.253 0.186-0.036 0.371-0.12 0.411-0.186 0.109-0.181 1.015-0.188 1.619-0.013 0.239 0.07 0.454 0.164 0.646 0.285z" fill="#030303"/>
     </g>
    </g>
   </g>
   <g width="189.80319mm" height="139.63518mm" rx="0" ry="0">
    <g class="fills">
     <path rx="0" ry="0" d="m327.5 143.63c-0.929 1.094-1.691 2.349-2.261 3.719-3.316 7.972-8.441 26.087-8.441 26.087l1.326 3.211-3.974 15.241 0.907 2.848-4.938 11.405c-2.116-0.317-4.356 0.597-5.837 2.382-1.071 1.292-1.638 2.913-1.576 4.506 0.063 1.594 0.749 3.03 1.909 3.993 1.16 0.962 2.698 1.372 4.276 1.139s3.066-1.089 4.138-2.381c1.762-2.123 2.084-5.027 0.798-7.176l2.312-0.513 6.05-7.892 3.656 0.97 10.064-11.329 3.04-1.026s6.005-6.068 14.878-15.744c8.874-9.676 8.248-19.558-3.625-28.675-9.832-7.549-18.224-6.035-22.702-0.765zm-19.109 77.949c-0.68 0.804-1.066 2.039-0.891 3.604 0.587 5.27 3.551 11.699 11.568 14.225 11.201-2.43 4.123-10.913 2.055-9.94s-4.475 1.085-6.462-5.002c-1.397-4.28-4.66-4.793-6.27-2.887z" fill="#fff" overflow="visible"/>
    </g>
    <g class="fills">
     <path rx="0" ry="0" d="m336.97 238.73c-0.822 0.21-1.299 0.169-1.394-0.12-0.036-0.109-0.477-0.683-0.981-1.274-1.414-1.662-2.95-3.631-3.982-5.106-0.623-0.89-1.693-1.874-2.969-2.731-0.852-0.571-1.113-0.662-1.568-0.546-0.811 0.208-0.944 0.722-0.472 1.828 0.226 0.528 0.468 1.008 0.538 1.066s0.155 0.349 0.19 0.647l0.063 0.542 0.634-0.174c1.367-0.373 2.136 0.833 1.229 1.926l-0.425 0.512 0.818 0.489c0.45 0.269 1.609 1.053 2.575 1.743 1.724 1.231 1.758 1.265 1.828 1.867 0.085 0.738-0.313 1.221-1.129 1.213-0.757-0.06-1.402-0.634-2.888-1.707-0.921-0.665-1.869-1.375-2.106-1.576l-0.43-0.365-2.764 3.252 0.674 0.252c0.495 0.184 1.018 0.585 1.965 1.504 0.71 0.689 1.369 1.286 1.465 1.326 0.095 0.039 0.573 0.353 1.062 0.697 0.697 0.49 0.914 0.736 1.006 1.138 0.145 0.636-0.227 0.916-1.352 1.017-0.827 0.074-1.145-0.108-2.646-1.51-0.253-0.236-1.108-0.975-1.9-1.643l-1.44-1.214-0.422 0.42-0.421 0.42 1.546 1.283c0.851 0.705 2.03 1.855 2.776 2.32 2.125 1.063 1.205 2.625-0.084 2.304-1.497-0.396-2.037-1.241-3.888-2.776-1.713-1.422-1.721-1.426-2.539-1.397-1.019 0.036-1.317-0.196-1.12-0.871 0.24-1.88 1.83-2.448 2.226-3.503-0.528 2e-3 -0.249 0.086-1.131 0.177-1.332 0.137-1.832 0.085-2.938-0.308-1.856-0.66-2.525-1.072-4.382-2.699-3.838-2.88-9.46-14.596-3.561-17.185 0.704-0.541 2.228-0.847 3.205-0.644 1.402 0.291 2.58 1.403 3.294 3.111 0.477 1.141 0.622 1.196 1.475 0.552 1.234-0.931 2.461-2.762 2.986-4.457 0.861-3.939 0.418-8.869-0.899-11.884-0.091-0.012-0.474 0.35-0.851 0.804-0.731 0.881-1.386 1.307-2.125 1.38-0.655 0.065-0.697 0.203-0.294 0.954 1.088 2.03 0.078 5.935-1.912 7.389-1.817 1.273-3.208 1.558-4.808 1.484-3.449-0.313-4.762-1.31-6.101-4.496-0.771-2.475 0.086-5.413 1.769-7.358 1.379-1.714 4.237-2.278 5.748-1.794 0.332 0.126 0.33-0.618-1e-3 -0.894-0.168-0.139-0.15-0.364 0.058-0.72 1.004-1.718 2.49-4.939 3.075-6.663 0.092-0.273 0.374-0.678 0.625-0.901 0.448-0.396 0.446-0.427-0.061-1.275-0.285-0.479-0.659-1.039-0.83-1.246-0.904-1.148 0.713-7.609 2.129-11.393 0.201-0.509 0.515-1.601 0.697-2.426s0.548-2.143 0.671-2.334c-1.983-3.179-0.938-5.258-0.176-8.024 0.117-0.424 0.355-1.026 0.529-1.336 0.175-0.311 0.392-0.823 0.483-1.138s0.344-1.064 0.564-1.663c0.219-0.599 0.517-1.523 0.662-2.053 0.146-0.53 0.365-1.254 0.487-1.608s0.268-0.926 0.323-1.271c0.056-0.344 0.167-0.706 0.247-0.803 0.081-0.098 0.252-0.541 0.382-0.985 1.662-4.849 2.837-10.373 5.369-14.773 0.6-0.955 2.451-3.255 3.253-3.805 3.452-2.367 7.549-2.533 12.088-1.441 0.611 0.156 1.334 0.33 1.607 0.387s0.904 0.307 1.403 0.556c0.98 0.489 1.571 0.766 3.02 1.417 1.28 0.574 5.544 4.105 6.521 5.401 0.385 0.509 1.109 1.443 1.61 2.075 2.81 3.545 4.453 6.629 5.376 10.095 0.937 3.517 0.631 7.122-0.772 9.091-0.481 0.652-4.982 6.504-10.184 12.403-4e-3 -4e-3 -0.559 0.601-1.233 1.344-2.742 3.219-3.862 3.96-6.371 6.824-1.579 1.71-3.304 2.436-5.114 3.085l-1.714 1.876c-0.943 1.031-1.917 2.055-2.164 2.273-0.386 0.343-0.418 0.472-0.23 0.924 0.236 0.567 0.424 0.632 0.736 0.255 0.204-0.245 0.301-0.21 2.781 1.003 4.389 1.999 8.946 4.024 12.882 5.964 0.681 0.338 8.728 4.073 9.161 4.248 0.433 0.176 1.472 0.754 2.309 1.285 2.74 1.319 1.338 3.12-1.006 1.495-0.081-0.058-0.511-0.234-0.957-0.392-1.571-0.557-10.959-4.848-12.021-5.432-0.264-0.146-0.955-0.451-1.535-0.678-0.58-0.228-1.7-0.711-2.488-1.075-0.788-0.363-1.995-0.878-2.682-1.143s-1.38-0.591-1.541-0.725c-0.16-0.133-0.383-0.211-0.494-0.172-0.128 0.044 0.285 0.479 1.143 1.204 0.74 0.624 1.484 1.284 1.654 1.465 1.097 1.173 9.712 8.606 10.831 9.584 1.42 1.191-0.058 2.257-0.785 2.136-0.374-0.074-4.978-4.285-6.702-5.83-3.144-2.817-5.254-4.733-6.551-5.95-0.611-0.573-1.094-0.939-1.074-0.813 0.021 0.126 0.54 0.887 1.154 1.692s1.235 1.7 1.379 1.989c0.145 0.289 0.543 0.884 0.885 1.323 0.341 0.438 0.945 1.29 1.341 1.894 0.826 1.259 0.838 1.275 1.721 2.28 0.62 0.705 1.143 1.44 3.178 4.457 0.46 0.681 3.891 5.881 4.2 6.297 0.753 1.013 0.824 1.414 0.36 2.029-0.362 0.48-0.421 0.492-0.951 0.187-0.533-0.308-4.218-5.658-5.437-7.433-1.616-2.228-3.026-4.349-4.78-6.459-0.29-0.346-0.883-1.148-1.318-1.783-0.435-0.634-1.08-1.563-1.434-2.064-0.353-0.501-0.696-1.043-0.761-1.204-0.155-0.381-3.888-5.557-4.492-6.229-0.714-0.794-0.864-1.209-0.608-1.678 0.269-0.491-0.373 0.084-2.205 1.974-1.883 1.943-2.665 2.378-3.176 2.217-0.558-0.175-1.067-0.397-1.669-0.497l-0.615-0.096-0.951 1.341c-0.523 0.738-1.141 1.556-1.374 1.818-0.39 0.44-0.393 0.545-0.034 1.343 0.768 1.708 1.141 3.192 1.325 5.269 0.188 2.128 0.255 3.853 0.154 3.975-0.03 0.036-0.071 0.391-0.091 0.789-0.074 1.49-0.545 3.373-1.129 4.516-0.801 1.568-2.547 3.464-3.67 3.984-0.435 0.202-0.832 0.417-0.884 0.479-0.051 0.062 0.166 0.717 0.483 1.455 0.433 1.012 0.786 1.546 1.43 2.166 0.811 0.78 0.891 0.817 1.554 0.725 0.385-0.054 1.062-0.33 1.506-0.614 0.443-0.285 0.998-0.518 1.232-0.519 0.41-1e-3 0.437-0.043 0.701-1.075 0.519-2.033 2.449-3.592 4.304-3.476 2.347 0.147 5.679 2.264 7.643 4.856 0.628 0.829 0.828 0.862 1.457 0.241 1.744-1.72 2.147-2.102 2.236-2.113 0.214-0.026 0.933 0.736 0.99 1.049 0.074 0.413-0.919 1.642-1.888 2.334-0.556 0.398-0.683 0.552-0.618 0.751 0.065 0.197-0.057 0.325-0.563 0.593-0.99 0.525-1.355 0.347-2.851-1.392-1.439-1.672-3.567-3.435-4.669-3.869-0.387-0.153-0.914-0.383-1.173-0.512-0.823-0.412-1.725-0.351-2.136 0.145-0.348 0.419-0.858 1.528-0.746 1.621 0.029 0.024 0.555-8e-3 1.169-0.07 0.829-0.083 1.289-0.013 1.787 0.275 0.798 0.459 3.006 2.266 3.281 2.685 0.107 0.162 0.569 0.664 1.028 1.116 0.827 0.815 2.023 2.376 2.935 3.83 0.26 0.416 0.553 0.729 0.649 0.696 0.097-0.033 0.634-0.598 1.194-1.254 1.19-1.396 1.52-1.469 2.137-0.474l0.351 0.568-1.152 1.311c-1.149 1.306-1.152 1.312-0.893 1.732 0.367 0.597 0.198 0.889-0.636 1.102zm-13.453-3.662c0.162-0.606 0.369-1.316 0.46-1.577 0.268-0.774-0.035-1.038-1.041-0.907-0.495 0.064-0.951 0.075-1.013 0.024-0.199-0.166-0.115-0.767 0.217-1.53 0.425-0.979 0.061-1.345-0.765-0.769-0.621 0.433-2.299 0.712-3.185 0.529-1.402-0.288-3.145-2.42-3.786-4.629-0.234-0.804-0.78-1.363-1.244-1.272-0.167 0.033-0.742-0.052-1.276-0.187-1.418-0.36-1.335-0.72 0.222-0.961 1.089-0.168 1.348-0.264 1.196-0.534-0.262-1.063-1.341-2.133-2.375-2.386-0.964-0.191-2.384 0.998-2.684 2.247-0.162 0.674-0.069 2.337 0.196 3.51 0.221 0.98 1.167 3.24 1.726 4.124 0.25 0.394 0.672 1.108 0.938 1.587 0.694 1.25 2.278 2.953 3.92 4.217 1.234 0.949 1.59 1.136 2.687 1.409 1.385 0.345 2.787 0.362 3.733 0.045 0.83-0.278 1.687-1.493 2.074-2.94zm29.487-63.771c-0.061-0.051-0.689-0.012-1.395 0.085-1.602 0.22-3.651 0.208-5.305-0.033-0.697-0.102-1.581-0.198-1.964-0.215-0.383-0.016-0.774-0.094-0.869-0.173s-0.455-0.202-0.8-0.274c-1.134-0.238-1.26-0.28-2.335-0.783-1.733-0.456-3.317-1.494-4.819-2.129-5.044-2.88-8.586-7.599-9.872-10.51-0.163-0.216-0.349-0.688-0.412-1.048-0.064-0.36-0.229-0.923-0.367-1.25-0.138-0.328-0.288-0.902-0.335-1.275-0.115-0.931-0.357-0.694-0.689 0.675-0.154 0.632-0.383 1.363-0.509 1.625-0.127 0.261-0.279 0.825-0.339 1.253s-0.222 1.004-0.359 1.28c-0.255 0.513-0.457 1.181-1.089 3.594-0.4 1.526-1.258 3.999-2.263 6.521-0.37 0.928-0.65 1.76-0.624 1.849 0.027 0.089-0.101 0.427-0.283 0.75-0.465 0.823-0.442 1.518 0.098 3.066 0.559 1.602 1.715 3.453 3.132 5.013 0.57 0.627 1.302 1.45 1.628 1.83s0.886 0.906 1.245 1.168c2.789 2.033 3.859 2.692 6.169 3.801 2.094 1.005 2.998 1.329 4.762 1.706 1.895 0.757 3.361-0.043 4.291-1.529 0.97-1.082 2.188-2.415 2.705-2.962 1.365-1.443 3.72-4.079 6.862-7.68 1.515-1.736 2.773-3.161 2.795-3.166 0.172-0.035 1.027-1.118 0.941-1.189zm-13.232 13.161c-1.364-0.134-3.128-0.71-3.758-1.226-0.429-0.352-0.277-0.669 0.5-1.037 0.411-0.196 2.014 0.049 2.395 0.365 0.075 0.063 0.393 0.167 0.706 0.233 0.904 0.188 1.366 0.67 1.173 1.223-0.09 0.26-0.174 0.483-0.187 0.496-0.013 0.014-0.386-0.011-0.829-0.054zm4.26-4.854c-0.916 0.26-2.755-0.285-2.801-0.83-0.046-0.543 1.886-0.997 2.736-0.643 0.736 0.307 0.778 1.271 0.065 1.473zm-6.995 6.963c-1.303-0.068-2.201-0.422-2.747-1.085-0.434-0.526-0.316-0.805 0.443-1.044 0.349-0.11 0.694-0.028 1.217 0.289 0.401 0.244 1.03 0.492 1.399 0.551 0.549 0.088 0.71 0.189 0.883 0.552 0.308 0.646 0.055 0.802-1.195 0.737zm4.299-4.698c-1.379 0.087-1.939-0.034-2.296-0.496-0.495-0.64-0.157-0.932 1.244-1.073 0.812-0.082 1.292-0.024 1.546 0.187 0.71 0.589 0.448 1.323-0.494 1.382zm16.815-19.683c-0.122-1.092-0.552-2.727-1.365-5.196-0.616-1.869-2.154-4.291-5.2-8.187-1.361-1.739-4.709-4.644-6.225-5.399-0.415-0.207-0.996-0.527-1.292-0.711-3.988-2.191-9.813-2.819-12.932-1.371-0.751 0.371-2.564 1.904-3.4 3.076-1.441 2.019-1.815 4.431-1.523 6.322 0.119 0.753 0.275 1.417 0.346 1.477 0.072 0.059 0.144 0.367 0.161 0.684 0.05 0.918 1.421 3.851 2.534 5.419 1.124 1.584 3.011 3.702 3.62 4.065 0.359 0.213 0.362 0.163 0.044-0.615-0.494-0.935-0.773-1.911-0.835-2.953-0.197-2.035 0.176-2.998 0.647-4.698 1.313-3.108 3.549-3.486 6.763-3.585 1.122-0.043 2.275-0.141 3.211-0.152 0.961-0.011 0.898 0.072 1.953 1.207 0.616 0.664 1.313 1.617 1.582 2.166 1.439 3.457 1.124 6.578-1.806 9.208-1.678 1.255-3.461 1.681-5.197 1.639-1.262 0.091-2.516-0.261-4.331-1.014l-0.527 0.034 0.996 0.716c1.993 1.432 7.538 3.821 9.183 3.955 0.318 0.026 0.619 0.08 0.669 0.121 0.243 0.203 3.959 0.442 5.294 0.341 1.204 0.048 0.557-0.476 0.991-1.022 0.135-0.163 0.068-1.655-0.17-3.797-0.449-4.028-0.632-4.892-1.485-7.022-0.999-2.494-3.901-5.443-7.067-7.181-0.177-0.097-0.715-0.395-1.198-0.664-1.692-0.94-3.698-1.704-5.462-2.079-2.01-0.274-4.148 0.032-5.798 0.519-0.305 0.087-0.686 0.238-0.848 0.334-0.404 0.24-0.842 0.063-0.921-0.372-0.103-0.576 0.673-1.118 3.089-2.154 0.701-0.301 3.897-0.529 5.336-0.381 1.229 0.126 3.585 0.919 6.553 2.206 0.668 0.29 3.265 1.88 3.4 2.082 0.057 0.086 0.744 0.712 1.526 1.392 3.698 3.322 4.611 6.121 5.174 11.138 0.171 1.67 0.118 3.833-0.101 4.097-0.071 0.086-0.171 0.586-0.222 1.111-0.052 0.525-0.182 1.061-0.29 1.192-0.407 0.49 0.554 0.279 2.156-0.472 0.351-0.165 0.752-0.352 0.892-0.418 1.725-1.21 2.257-3.277 2.075-5.058zm-24.18 27.638c-0.042-0.035-0.346-0.12-0.676-0.19-0.775-0.165-2.222-0.744-4.002-1.602-4.084-1.967-6.943-4.102-9.498-7.094-0.747-0.875-1.391-1.589-1.43-1.586-0.038 3e-3 -0.202 0.6-0.363 1.328-0.162 0.727-0.414 1.624-0.561 1.992-0.147 0.369-0.317 1.002-0.378 1.407-0.526 2.699-1.339 5.17-1.819 7.246-0.164 0.71-0.216 1.365-0.116 1.456 0.1 0.09 0.302 0.336 0.449 0.546 1.432 2.048 2.782 3.683 3.313 4.012 1.848 1.146 2.626 1.549 3.736 1.933 0.949 0.33 2.257 0.255 2.591-0.147 0.245-0.295 0.232-0.321-0.153-0.307-1.099 0.038-2.917-0.769-2.598-1.153 0.195-0.235 1.265-0.634 1.437-0.535 0.066 0.038 0.359 0.094 0.652 0.125 0.565 0.06 0.738-0.191 0.355-0.515-0.514-0.435-0.451-0.727 0.226-1.046 0.512-0.242 0.814-0.23 1.591 0.062 0.885 0.334 0.945 0.33 0.785-0.046-0.106-0.249-0.066-0.527 0.103-0.715 0.227-0.254 0.209-0.339-0.102-0.487-0.517-0.245-0.715-0.659-0.462-0.964 0.352-0.425 2.671-0.264 2.931 0.203 0.109 0.197 0.398-0.022 1.526-1.16 1.716-1.73 2.563-2.68 2.463-2.763zm-20.585 24.075c0.687-2.106 0.46-3.322-0.854-4.583-0.454-0.435-0.769-0.668-0.701-0.518s0.028 0.407-0.087 0.571c-0.116 0.164-0.353 0.554-0.526 0.865-0.283 0.507-0.428 0.581-1.382 0.708-0.587 0.077-1.118 0.203-1.181 0.278-0.063 0.076-0.268-0.023-0.457-0.221-0.253-0.265-0.298-0.569-0.172-1.164 0.2-0.944 0.884-1.692 1.861-2.036 0.786-0.276 0.783-0.704-7e-3 -1.127-3.548-0.892-5.208 2.859-5.507 3.723-0.279 0.994-0.312 2.563-0.068 3.199 0.835 2.177 1.493 2.909 2.923 3.254 1.749 0.421 4.456-0.3 5.409-1.44 0.232-0.278 0.569-0.957 0.749-1.509zm12.728-16.673c-0.403-0.117-0.745-0.137-0.758-0.043-0.014 0.094 0.068 0.205 0.182 0.246 0.114 0.042 0.304 0.244 0.421 0.45 0.191 0.334 0.251 0.33 0.552-0.033l0.337-0.406zm-5.802 3.386c-1.229-0.403-4.587-3.031-5.048-3.951-0.162-0.322-0.175-0.301-0.195 0.305-0.012 0.358-0.071 0.711-0.131 0.783s-0.094 0.303-0.077 0.513c0.018 0.21-0.091 0.532-0.243 0.714-0.342 0.413-0.294 0.572 0.265 0.877 0.496 0.272 0.783 0.108 0.386-0.222-0.143-0.118-0.258-0.366-0.257-0.552 5e-3 -0.596 0.906-0.726 1.705-0.245 0.675 0.405 1.598 1.549 1.563 1.934-0.01 0.103 0.143 0.155 0.34 0.117 0.196-0.039 0.526 0.07 0.731 0.24 0.462 0.383 0.635 0.372 0.998-0.065 0.223-0.269 0.215-0.365-0.037-0.448zm-3.492 3.788c-0.893 0.049-1.72-0.205-2.905-0.893l-1.115-0.648-0.571 0.853c-0.853 1.277-0.734 1.781 0.678 2.88 0.603 0.468 1.214 0.867 1.359 0.885 0.326 0.042 1.357-1.161 1.146-1.337-0.083-0.068-0.283-0.029-0.445 0.088-0.203 0.147-0.489 0.1-0.924-0.151-0.89-0.512-0.849-0.809 0.158-1.145 0.913-0.304 1.698-0.286 2.173 0.05 0.237 0.168 0.385 0.123 0.651-0.198l0.345-0.415zm-2.887-3.168c-0.126-0.017-0.367 0.141-0.537 0.351l-0.308 0.381 0.557-0.108c0.556-0.108 0.765-0.561 0.288-0.624zm29.741-40.82c-7e-3 -0.087-0.389-0.164-0.847-0.172-2.971-0.521-5.945-2.258-7.543-5.503l-0.212 0.477c-0.336 0.759-0.499 2.254-0.363 3.33 0.12 1.14 0.089 1.839 0.257 2.88 0.113 0.712 0.236 0.793 0.694 0.454 0.294-0.217 1.342 0.128 2.84 0.45 2.511 0.54 3.337 0.328 4.694-1.202 0.272-0.306 0.488-0.628 0.48-0.714zm0.6-5.129c-0.968-2.084-1.694-2.543-3.934-2.482-1.09 0.03-1.087 0.366 5e-3 0.482 0.443 0.046 0.873 0.313 1.959 1.211 0.765 0.633 1.582 1.394 1.816 1.692 0.671 0.853 0.751 0.384 0.154-0.903z" fill="#030303"/>
    </g>
   </g>
  </g>
 </g>
</svg>
