<svg xmlns:xlink="http://www.w3.org/1999/xlink" width="55.645" xmlns="http://www.w3.org/2000/svg" height="69.998" id="screenshot-59e14f1a-7712-80dc-8002-7ca7093b731b" viewBox="0 -0 55.645 69.998" style="-webkit-print-color-adjust: exact;" fill="none" version="1.1"><g id="shape-59e14f1a-7712-80dc-8002-7ca7093b731b" height="69.998131mm" width="55.645023mm" rx="0" ry="0" style="fill: rgb(0, 0, 0);"><g id="shape-59e14f1a-7712-80dc-8002-7ca7093d4a07"><g class="fills" id="fills-59e14f1a-7712-80dc-8002-7ca7093d4a07"><path color="#000" overflow="visible" rx="0" ry="0" d="M5.478,15.976C5.587,11.848,11.553,9.072,26.987,9.491C42.422,9.909,50.852,10.397,50.542,16.115C50.232,21.833,47.396,60.854,47.133,62.681C46.869,64.508,39.555,67.855,30.040,68.371C20.525,68.887,11.847,67.088,10.840,63.923C9.833,60.757,5.478,15.976,5.478,15.976ZZ" style="fill: rgb(255, 255, 255);"/></g></g><g id="shape-59e14f1a-7712-80dc-8002-7ca7093f7b0b"><g class="fills" id="fills-59e14f1a-7712-80dc-8002-7ca7093f7b0b"><path rx="0" ry="0" d="M16.255,69.379C13.638,69.097,10.891,67.881,9.713,66.430C9.322,65.948,9.109,64.745,8.737,60.916C7.993,47.309,6.467,37.287,5.577,21.975C4.766,21.555,3.458,21.739,2.327,21.418C-0.003,20.974,-0.278,20.464,0.193,17.830C0.275,16.415,1.336,17.089,2.503,17.199L4.659,17.401C3.271,16.642,3.940,13.947,4.386,12.079C5.474,8.286,17.909,7.430,20.772,7.529C21.594,7.568,21.668,7.479,21.969,6.098C22.176,5.145,23.985,2.424,25.013,1.518C26.726,0.009,28.630,-0.368,30.885,0.356C31.980,0.708,33.632,1.834,34.441,2.781C35.012,3.449,36.017,6.369,35.883,6.975C37.784,7.506,40.908,7.965,43.270,8.633C44.392,8.957,45.733,9.332,46.251,9.466C49.406,10.460,52.425,12.449,52.804,15.870C52.869,16.658,53.079,16.961,53.813,17.327C54.323,17.580,54.990,18.253,55.296,18.820C56.568,21.461,54.060,22.013,52.662,21.968C50.539,22.121,33.769,22.074,28.466,22.335C22.016,22.653,10.165,21.788,9.673,21.856C9.441,21.888,9.160,21.914,9.564,22.230C10.779,39.783,11.985,53.495,13.401,65.053C13.401,65.216,13.581,65.280,13.802,65.195C16.017,66.735,40.288,68.499,44.723,63.497C44.698,60.980,45.088,51.943,45.298,50.584C45.594,43.072,46.043,36.518,46.600,28.686C46.741,26.586,46.836,23.464,46.811,22.817C46.715,20.460,49.838,20.964,50.745,22.244C50.936,22.540,50.857,27.490,50.560,32.650C49.681,39.727,49.951,46.065,49.406,53.357C49.248,55.370,49.177,58.467,49.247,60.239C49.363,63.170,48.885,64.383,48.362,64.857C47.163,70.874,26.719,70.402,16.255,69.379ZZM44.723,18.221C47.016,18.082,49.483,18.246,49.270,17.351L49.065,16.258C48.788,14.773,48.278,14.416,44.872,13.320C40.085,12.096,31.820,11.128,20.981,11.522C20.643,11.587,19.226,11.729,17.831,11.838C14.871,12.068,10.204,12.540,8.621,13.360C7.561,13.908,7.511,14.001,7.427,15.570L7.340,17.209L10.523,17.766C31.741,18.931,35.200,18.516,44.723,18.221ZZM26.400,7.265C28.634,7.314,29.440,7.152,31.518,7.152C31.053,3.205,27.717,2.741,26.400,7.265ZZM37.174,62.544C36.555,61.885,36.543,61.765,36.860,59.420C37.041,58.079,37.307,56.448,37.451,55.795C37.758,54.402,38.357,48.252,38.755,42.412C38.853,40.969,38.977,39.330,39.030,38.769C39.185,37.138,39.604,28.912,39.616,26.916C39.626,25.124,39.643,25.089,40.569,24.782C41.634,24.548,42.409,24.802,42.952,25.945C43.234,26.455,43.335,27.025,43.317,30.376C43.189,33.835,43.084,37.192,42.865,40.372C42.753,41.975,42.595,44.252,42.515,45.432C42.316,48.367,41.680,53.084,40.918,57.273C40.376,60.253,40.151,60.921,39.400,61.790C38.147,63.238,37.903,63.321,37.174,62.544ZZM22.988,62.328C22.328,61.793,22.324,61.749,22.440,55.844C22.668,44.259,22.369,35.025,21.887,30.259C21.625,27.669,21.479,25.287,21.563,24.966C21.730,24.326,22.856,23.920,23.710,24.191C25.692,25.452,25.017,27.414,25.581,28.974C25.811,29.346,26.054,39.497,26.064,43.028C26.086,50.801,26.197,60.153,25.865,61.219C25.316,62.856,23.917,63.075,22.988,62.328ZZM16.689,62.800C15.945,62.303,15.698,61.167,15.698,58.231C15.698,56.536,15.495,53.885,15.246,52.341C14.849,48.227,14.611,44.435,14.401,40.439C14.301,38.516,14.167,36.484,14.102,35.923C13.988,34.937,13.882,33.613,13.497,28.346C13.065,25.893,13.469,22.847,15.972,24.776C17.137,25.719,17.497,28.777,17.885,41.022C17.992,44.388,18.341,49.240,18.662,51.804C18.982,54.368,19.237,57.617,19.228,59.023C19.212,61.444,19.168,61.618,18.402,62.292C17.545,63.047,17.208,63.147,16.689,62.800ZZM30.634,61.494C29.932,60.660,29.902,60.480,30.033,57.924C30.321,52.321,30.411,50.858,30.479,50.717C30.517,50.637,30.571,49.981,30.599,49.260C30.626,48.539,30.795,46.441,30.975,44.597C31.154,42.754,31.306,37.312,31.312,32.504C31.322,22.892,31.206,23.751,33.025,23.751C33.886,23.751,35.011,24.719,35.035,25.481C35.095,27.318,35.058,39.848,34.968,41.246C34.390,50.226,34.180,52.845,33.921,54.309C33.749,55.281,33.707,57.167,33.821,58.725C33.798,60.647,34.782,61.051,33.123,61.909C31.863,62.561,31.478,62.496,30.634,61.494ZZ" style="fill: rgb(3, 3, 3);"/></g></g></g></svg>